<svg width="151" height="20" viewBox="0 0 151 20" fill="none" xmlns="http://www.w3.org/2000/svg">
<path d="M20.2495 0H21.5824C23.4578 0.104722 25.4571 0.456969 26.9517 1.68507C28.1418 2.65613 28.6463 4.30312 28.3512 5.79779C28.1322 6.90213 27.6182 7.93031 27.066 8.91089C25.9521 10.8435 24.5717 12.6142 23.2674 14.4326C23.0294 14.7277 22.8485 15.099 22.8676 15.4893C22.8961 15.794 23.1341 16.0415 23.4102 16.1558C23.9434 16.3747 24.5431 16.3271 25.1048 16.2986C26.8946 16.1082 28.6178 15.5655 30.3219 15.0229C30.4456 14.9467 30.4932 15.08 30.5408 15.1752C28.732 16.3747 26.7804 17.3839 24.7335 18.1264C23.6006 18.5072 22.4011 18.869 21.192 18.7262C20.5637 18.6596 19.9258 18.2883 19.7259 17.6504C19.4784 16.8317 19.5736 15.9177 19.9258 15.1371C20.4685 13.9185 21.3158 12.8808 22.106 11.8241C23.4293 10.0914 24.7907 8.36824 25.8284 6.43564C26.1806 5.75971 26.5424 4.92194 26.1996 4.16984C25.8855 3.47487 25.181 3.0655 24.5146 2.75133C23.3341 2.22772 22.0679 1.90404 20.8207 1.55179C20.6303 1.67873 20.4431 1.80249 20.2591 1.92308C20.6875 2.25628 21.1254 2.58949 21.5538 2.9227C19.9163 3.21782 18.2789 3.55103 16.6604 3.9604C14.2042 4.57921 11.8051 5.39794 9.42509 6.25476C9.65357 6.72125 9.89157 7.18774 10.1105 7.65423C9.56789 8.254 9.03476 8.85377 8.50163 9.44402C9.78685 9.83435 11.1863 9.89147 12.5001 9.59634C13.6235 9.3393 14.6897 8.80617 15.5466 8.03504C15.3086 7.73991 15.0134 7.5019 14.6993 7.3115C15.7465 7.34006 16.6985 8.24448 16.6985 9.31074C16.4954 9.31074 16.2923 9.31074 16.0892 9.31074C16.0448 9.08226 15.9813 8.85694 15.8988 8.63481C14.7088 9.71059 13.176 10.3865 11.5862 10.5579C10.1867 10.7197 8.75867 10.5293 7.43537 10.0343C7.53057 10.8467 7.61942 11.6591 7.70193 12.4714C6.94984 12.7666 6.25486 13.1855 5.63605 13.6995C5.141 14.128 4.64595 14.623 4.46507 15.2704C4.27467 15.8416 4.57931 16.489 5.07436 16.7936C5.67413 17.1649 6.37863 17.3458 7.08312 17.441C7.99706 17.5647 8.93003 17.5552 9.85349 17.4886C11.6623 17.3553 13.4616 17.0126 15.2229 16.5842C15.3942 16.5175 15.4799 16.8031 15.299 16.8507C13.89 17.5743 12.4239 18.1835 10.8817 18.5739C9.44413 18.9547 7.95898 19.1451 6.46431 19.1927C4.9506 19.1451 3.33217 18.85 2.13262 17.8599C1.23773 17.1363 0.761719 15.9844 0.761719 14.842V14.7848C0.790279 13.5758 1.19965 12.4048 1.7899 11.3671C2.56103 9.89147 3.51305 8.51104 4.63643 7.28294C6.57855 5.13138 9.01572 3.47487 11.6338 2.27532C14.3565 1.04722 17.2602 0.161843 20.2495 0Z" fill="#FF5A00"/>
<path fill-rule="evenodd" clip-rule="evenodd" d="M43.6121 0.59984C45.77 0.59984 47.9279 0.596667 50.0858 0.59032C52.9323 6.56899 55.7789 12.5477 58.6159 18.5263C56.4643 18.5263 54.3032 18.5263 52.1517 18.5263C51.7137 17.4474 51.2726 16.3684 50.8284 15.2895C47.8581 15.2895 44.8878 15.2895 41.9175 15.2895C41.4478 16.3684 40.975 17.4474 40.499 18.5263C38.5569 18.5263 36.6147 18.5263 34.6726 18.5263C36.0435 15.775 37.424 13.0332 38.7853 10.2819C40.3942 7.045 42.0127 3.82718 43.6121 0.59984ZM46.5348 4.88392C45.5637 7.04818 44.5927 9.20926 43.6216 11.3672C45.5129 11.3672 47.4011 11.3672 49.2861 11.3672C48.3722 9.20609 47.4487 7.045 46.5348 4.88392ZM60.2438 0.59984C62.1288 0.59984 64.0106 0.59984 65.8893 0.59984C65.8893 6.57217 65.8893 12.5477 65.8893 18.5263C64.0106 18.5263 62.1288 18.5263 60.2438 18.5263C60.2438 12.5477 60.2438 6.57217 60.2438 0.59984ZM69.4308 0.59984C71.3158 0.59984 73.2008 0.59984 75.0858 0.59984C75.0858 1.79304 75.0858 2.98623 75.0858 4.17943C73.2008 4.17943 71.3158 4.17943 69.4308 4.17943C69.4308 2.98623 69.4308 1.79304 69.4308 0.59984ZM78.6463 0.61888C80.4933 0.612534 82.3402 0.612534 84.1871 0.61888C84.1871 3.0497 84.1871 5.47735 84.1871 7.90182C85.2533 6.74036 86.7099 5.9121 88.2998 5.75026C89.7374 5.61698 91.2606 5.85498 92.4887 6.65468C93.0504 7.00692 93.5549 7.47341 93.9738 7.9875C94.8402 9.19657 95.3447 10.6722 95.3828 12.1573C95.4209 13.395 95.2495 14.6707 94.6498 15.7655C94.2594 16.489 93.7073 17.1269 93.0599 17.6219C91.9556 18.4026 90.6037 18.8691 89.2423 18.831C87.9666 18.8215 86.6719 18.4692 85.6246 17.7267C85.0534 17.3268 84.5679 16.8318 84.13 16.2891C84.13 17.038 84.13 17.7838 84.13 18.5263C82.3021 18.5263 80.4742 18.5263 78.6463 18.5263C78.64 12.554 78.64 6.58486 78.6463 0.61888ZM86.2339 8.72056C85.4723 8.89192 84.8154 9.44409 84.5012 10.1581C84.2442 10.7864 84.1585 11.4719 84.1395 12.1478C84.149 13.0522 84.2823 14.0328 84.8916 14.7564C85.3009 15.3085 85.9959 15.537 86.6433 15.6417C87.4906 15.7655 88.3284 15.3752 88.8901 14.7468C89.4041 14.2613 89.6041 13.5568 89.7088 12.8714C89.7945 12.1288 89.7659 11.3481 89.5279 10.6341C89.328 9.99626 88.9472 9.38697 88.376 9.03472C87.7381 8.6444 86.9479 8.54919 86.2339 8.72056ZM116.127 0.61888C117.974 0.612534 119.821 0.612534 121.668 0.61888C121.668 3.0497 121.671 5.47735 121.678 7.90182C122.591 6.91172 123.791 6.14059 125.133 5.85498C126.381 5.58842 127.713 5.69314 128.913 6.12155C130.274 6.63564 131.436 7.67334 132.055 8.98712C132.873 10.5484 133.045 12.3858 132.721 14.0995C132.502 15.2704 131.902 16.3653 131.045 17.1935C130.074 18.117 128.77 18.6596 127.447 18.8024C126.076 18.9262 124.638 18.6787 123.458 17.9456C122.744 17.5172 122.135 16.9365 121.611 16.2891C121.62 17.0412 121.62 17.7838 121.62 18.5263C119.78 18.5263 117.942 18.5263 116.108 18.5263C116.108 16.3557 116.108 14.182 116.108 12.005C116.137 8.20647 116.127 4.40791 116.127 0.61888ZM123.724 8.72056C122.906 8.89192 122.22 9.52025 121.935 10.3009C121.706 10.9197 121.63 11.5671 121.62 12.224C121.649 12.9761 121.735 13.7567 122.135 14.4136C122.363 14.7659 122.63 15.1086 123.02 15.2895C123.62 15.5846 124.315 15.756 124.981 15.6036C125.724 15.4323 126.333 14.8896 126.752 14.2708C127.294 13.2141 127.361 11.9574 127.066 10.815C126.895 10.1391 126.533 9.49169 125.952 9.09184C125.305 8.65392 124.476 8.53967 123.724 8.72056ZM102.114 5.89306C103.58 5.60746 105.093 5.59794 106.579 5.6741C108.007 5.77882 109.473 5.99778 110.739 6.68324C111.367 7.03548 111.938 7.52101 112.3 8.13983C112.719 8.84432 112.871 9.67257 112.881 10.4818C112.881 13.1601 112.881 15.8353 112.881 18.5073C111.148 18.5073 109.419 18.5073 107.692 18.5073C107.692 17.898 107.692 17.2887 107.692 16.6794C106.902 17.7267 105.674 18.3455 104.408 18.5835C102.989 18.8596 101.485 18.8976 100.086 18.4787C99.4003 18.2598 98.7244 17.9361 98.2103 17.4125C97.6772 16.8794 97.4011 16.1368 97.363 15.3847C97.2773 14.3184 97.6581 13.2141 98.4483 12.462C99.4384 11.5195 100.79 11.0911 102.114 10.8531C103.913 10.5484 105.75 10.5104 107.569 10.4628C107.569 9.84394 107.397 9.18705 106.931 8.75864C106.493 8.34927 105.865 8.21599 105.274 8.22551C104.77 8.21599 104.227 8.33023 103.856 8.692C103.618 8.93 103.465 9.24417 103.37 9.55833C101.657 9.55833 99.9398 9.55833 98.2198 9.55833C98.3436 8.75864 98.6387 7.96846 99.1909 7.35917C99.943 6.53091 101.038 6.11203 102.114 5.89306ZM105.065 12.9094C104.465 13.0046 103.827 13.1474 103.37 13.5759C102.847 14.0614 102.875 15.042 103.475 15.4513C103.922 15.7465 104.475 15.775 104.989 15.756C105.703 15.7274 106.474 15.5465 106.959 14.9848C107.492 14.4041 107.597 13.5759 107.588 12.8142C106.74 12.8142 105.903 12.8142 105.065 12.9094ZM139.652 5.88354C141.156 5.59794 142.698 5.59794 144.212 5.68362C145.592 5.78834 147.001 6.01682 148.229 6.67372C148.829 7.00692 149.372 7.47341 149.743 8.05414C150.152 8.68248 150.333 9.44409 150.362 10.1962C150.362 12.9634 150.362 15.7338 150.362 18.5073C148.642 18.5073 146.922 18.5073 145.202 18.5073C145.202 17.898 145.192 17.2792 145.202 16.6699C144.393 17.7457 143.117 18.3645 141.813 18.6025C140.404 18.8596 138.928 18.8976 137.548 18.4597C136.948 18.2693 136.367 18.0027 135.882 17.5838C135.349 17.1269 134.996 16.4605 134.901 15.7655C134.768 14.8896 134.892 13.9567 135.358 13.195C135.853 12.3858 136.662 11.8146 137.529 11.4433C138.833 10.8912 140.27 10.7293 141.679 10.6056C142.803 10.5199 143.945 10.4913 145.078 10.4628C145.05 9.88202 144.916 9.26321 144.497 8.82528C144.069 8.37783 143.431 8.22551 142.841 8.22551C142.289 8.21599 141.699 8.32071 141.308 8.7396C141.089 8.96808 140.965 9.26321 140.87 9.55833C139.157 9.55833 137.433 9.55833 135.72 9.55833C135.834 8.77768 136.12 8.00654 136.653 7.40677C137.405 6.53091 138.547 6.11203 139.652 5.88354ZM142.536 12.919C141.965 13.0046 141.356 13.1474 140.908 13.5378C140.347 14.0138 140.356 15.042 140.984 15.4513C141.46 15.7655 142.07 15.7845 142.622 15.756C143.307 15.7084 144.021 15.4989 144.478 14.9658C144.983 14.3755 145.107 13.5663 145.069 12.8142C144.231 12.8142 143.384 12.8238 142.536 12.919ZM69.4308 6.09299C71.3158 6.09299 73.2008 6.09299 75.0858 6.09299C75.0858 10.2374 75.0858 14.3819 75.0858 18.5263C73.2008 18.5263 71.3158 18.5263 69.4308 18.5263C69.4308 14.3819 69.4308 10.2374 69.4308 6.09299Z" fill="#FF5A00"/>
</svg>
