<svg width="104" height="25" viewBox="0 0 104 25" fill="none" xmlns="http://www.w3.org/2000/svg">
<path d="M26.2363 18.5059V2.59108H35.6427V4.58637H28.1841V9.47957H34.8826V11.4749H28.1841V16.4631H36.1653V18.4584H26.2363V18.5059Z" fill="#E43225"/>
<path d="M46.0473 18.5058L42.8168 14.2777L39.5863 18.5058H37.3059L41.7241 12.8525L37.0683 7.00913H39.6338L42.8168 11.3798L46.0473 7.00913H48.5652L44.147 12.8525L48.3276 18.5058H46.0473Z" fill="#E43225"/>
<path d="M51.4628 16.7956V24.6343H49.5149V12.9001C49.5149 9.90713 51.7953 6.72417 55.3584 6.72417C58.9689 6.72417 61.6769 9.00449 61.6769 12.7575C61.6769 16.4156 58.9214 18.9334 55.7859 18.9334C54.2657 18.9334 52.2229 18.2683 51.4628 16.7956ZM59.634 12.7575C59.634 10.1922 57.9713 8.67195 55.0258 8.81447C53.6006 8.86197 51.4152 9.90712 51.6053 13.5652C51.6528 14.7528 52.888 16.9856 55.5959 16.9856C57.9238 16.9856 59.634 15.6555 59.634 12.7575Z" fill="#E43225"/>
<path d="M63.3404 7.00913H65.2882V8.2443C66.2384 7.15164 67.7111 6.77159 69.2788 6.77159V8.86189C69.0413 8.81438 66.7134 8.52934 65.2882 11.5698V18.5533H63.3404V7.00913Z" fill="#E43225"/>
<path d="M69.8003 12.7576C69.8003 9.43216 72.1757 6.72427 75.4537 6.72427C79.5394 6.72427 81.0596 9.43216 81.0596 12.9002V13.8503H71.9381C72.0807 16.0356 74.0285 17.1758 75.8338 17.1283C77.164 17.0808 78.0666 16.7007 79.0168 15.7506L80.2995 17.0808C79.1118 18.2209 77.5915 18.981 75.7387 18.981C72.2707 18.9335 69.8003 16.3682 69.8003 12.7576ZM75.3112 8.67205C73.4584 8.67205 72.0332 10.2873 71.9381 12.045H79.0168C79.0168 10.3348 77.7816 8.67205 75.3112 8.67205Z" fill="#E43225"/>
<path d="M82.0576 16.8906L83.4828 15.608C83.4353 15.608 84.1955 16.3681 84.2905 16.4156C84.623 16.7006 84.9556 16.8906 85.3831 16.9856C86.6183 17.3182 88.8512 17.2232 89.0412 15.5129C89.1363 14.5628 88.4236 14.0402 87.616 13.7077C86.5708 13.3276 85.4307 13.1851 84.3855 12.71C83.1978 12.1875 82.4377 11.2848 82.4377 9.95464C82.4377 6.48664 87.3785 5.91655 89.6113 7.53178C89.7063 7.6268 90.799 8.62444 90.7515 8.62444L89.3263 9.7646C88.6137 8.90948 87.9486 8.48192 86.4283 8.48192C85.6682 8.48192 84.623 8.81447 84.433 9.62209C84.1479 10.7623 85.4307 11.1898 86.2858 11.4273C87.426 11.7124 88.6612 11.9024 89.6588 12.52C91.0365 13.3751 91.3691 15.2279 90.8465 16.6531C90.2764 18.2208 88.5662 18.8384 87.0459 18.8859C85.2406 18.9809 83.6729 18.4108 82.3902 17.1282C82.2952 17.1282 82.0576 16.8906 82.0576 16.8906Z" fill="#E43225"/>
<path d="M92.0825 16.8907L93.5077 15.608C93.4602 15.608 94.2203 16.3681 94.3153 16.4156C94.6479 16.7007 94.9804 16.8907 95.408 16.9857C96.6432 17.3183 98.876 17.2233 99.0661 15.513C99.1611 14.5629 98.4485 14.0403 97.6408 13.7078C96.5957 13.3277 95.4555 13.1852 94.4103 12.7101C93.2226 12.1875 92.4625 11.2849 92.4625 9.95472C92.4625 6.48672 97.4033 5.91663 99.6362 7.53186C99.7312 7.62688 100.824 8.62452 100.776 8.62452L99.3511 9.76468C98.6385 8.90956 97.9734 8.482 96.4531 8.482C95.693 8.482 94.6479 8.81455 94.4578 9.62217C94.1728 10.7623 95.4555 11.1899 96.3106 11.4274C97.4508 11.7125 98.686 11.9025 99.6837 12.5201C101.061 13.3752 101.394 15.228 100.871 16.6532C100.301 18.2209 98.591 18.8385 97.0708 18.886C95.2655 18.981 93.6977 18.4109 92.415 17.1282C92.32 17.1282 92.0825 16.8907 92.0825 16.8907Z" fill="#E43225"/>
<path d="M101.345 7.00918V5.774H100.917V5.53647H102.058V5.774H101.63V7.00918H101.345Z" fill="#E43225"/>
<path d="M103.482 7.00918V5.86901L103.055 7.00918H102.96L102.532 5.86901V7.00918H102.294V5.53647H102.674L103.055 6.53411L103.435 5.53647H103.815V7.00918H103.482Z" fill="#E43225"/>
<path d="M13.028 18.5058L11.6027 14.7052H3.90653L2.4813 18.5058H0.438477L6.61446 2.591H8.84731L14.9758 18.5058H13.028ZM7.65962 4.87133L4.76167 12.7575H10.7951L7.65962 4.87133Z" fill="#FF9900"/>
<path d="M16.2589 18.5059V2.59108H18.2542V18.5059H16.2589Z" fill="#FF9900"/>
<path d="M21.2472 18.5058V7.24666H23.2425V18.5058H21.2472Z" fill="#FF9900"/>
<path d="M25.1431 3.58863C25.1431 3.54112 25.1431 3.54112 25.1431 3.49362C25.1431 3.44611 25.1431 3.44611 25.1431 3.3986C23.6229 3.3511 22.3877 2.11592 22.3402 0.595703C22.2927 0.595703 22.2452 0.595703 22.1977 0.595703C22.1502 0.595703 22.1027 0.595703 22.0551 0.595703C22.0076 2.11592 20.7724 3.3511 19.2522 3.3986C19.2522 3.44611 19.2522 3.44611 19.2522 3.49362C19.2522 3.54112 19.2522 3.54112 19.2522 3.58863C20.7724 3.63613 22.0076 4.87132 22.0551 6.39154C22.1027 6.39154 22.1502 6.39154 22.1977 6.39154C22.2452 6.39154 22.2927 6.39154 22.3402 6.39154C22.3877 4.87132 23.6229 3.63613 25.1431 3.58863Z" fill="#FF9900"/>
</svg>
