<svg width="146" height="49" viewBox="0 0 146 49" fill="none" xmlns="http://www.w3.org/2000/svg">
<path d="M85.4706 37.0781C79.908 41.1782 71.8455 43.3657 64.9037 43.3657C55.1703 43.3657 46.4078 39.7657 39.7786 33.7781C39.2577 33.3073 39.7244 32.6656 40.3494 33.0323C47.5036 37.1948 56.3495 39.699 65.4871 39.699C71.6496 39.699 78.4288 38.424 84.6622 35.7781C85.6039 35.3781 86.3914 36.3948 85.4706 37.0781Z" fill="#FF9900"/>
<path d="M87.7831 34.4321C87.0748 33.5238 83.0831 34.003 81.2914 34.2155C80.7456 34.2821 80.6622 33.8071 81.1539 33.4655C84.3331 31.2279 89.5498 31.8738 90.1581 32.6238C90.7665 33.378 89.9998 38.6072 87.0123 41.103C86.5539 41.4864 86.1164 41.2822 86.3206 40.7739C86.9914 39.0989 88.4956 35.3447 87.7831 34.4321Z" fill="#FF9900"/>
<path d="M81.4163 17.6695V15.4945C81.4163 15.1653 81.6663 14.9445 81.9663 14.9445H91.7038C92.0163 14.9445 92.2663 15.1695 92.2663 15.4945V17.357C92.2622 17.6695 91.9997 18.0779 91.533 18.7237L86.4871 25.9279C88.3621 25.8821 90.3413 26.1613 92.0413 27.1196C92.4247 27.3363 92.5288 27.6529 92.558 27.9654V30.2863C92.558 30.603 92.208 30.9738 91.8413 30.7821C88.8455 29.2113 84.8663 29.0405 81.5538 30.7988C81.2163 30.9821 80.8621 30.6155 80.8621 30.2988V28.0946C80.8621 27.7404 80.8662 27.1363 81.2204 26.5988L87.0663 18.2154H81.9788C81.6663 18.2154 81.4163 17.9945 81.4163 17.6695Z" fill="#221F1F"/>
<path d="M45.8947 31.2406H42.9322C42.6489 31.2197 42.4239 31.0072 42.403 30.7364V15.5321C42.403 15.2279 42.6572 14.9863 42.9739 14.9863H45.7364C46.0239 14.9988 46.2531 15.2196 46.2739 15.4946V17.4821H46.3281C47.0489 15.5613 48.4031 14.6654 50.2281 14.6654C52.0823 14.6654 53.2406 15.5613 54.0739 17.4821C54.7906 15.5613 56.4198 14.6654 58.1656 14.6654C59.4073 14.6654 60.7657 15.1779 61.5948 16.3279C62.5323 17.6071 62.3407 19.4655 62.3407 21.0947L62.3365 30.6906C62.3365 30.9947 62.0823 31.2406 61.7657 31.2406H58.8073C58.5115 31.2197 58.274 30.9822 58.274 30.6906V22.6322C58.274 21.9905 58.3323 20.3905 58.1906 19.7821C57.9698 18.7613 57.3073 18.4738 56.449 18.4738C55.7323 18.4738 54.9823 18.953 54.6781 19.7196C54.3739 20.4863 54.4031 21.7697 54.4031 22.6322V30.6906C54.4031 30.9947 54.1489 31.2406 53.8323 31.2406H50.8739C50.5739 31.2197 50.3406 30.9822 50.3406 30.6906L50.3364 22.6322C50.3364 20.9363 50.6156 18.4405 48.5114 18.4405C46.3822 18.4405 46.4656 20.8738 46.4656 22.6322V30.6906C46.4656 30.9947 46.2114 31.2406 45.8947 31.2406Z" fill="#221F1F"/>
<path d="M100.649 14.6654C105.045 14.6654 107.424 18.4405 107.424 23.2405C107.424 27.878 104.795 31.5572 100.649 31.5572C96.3327 31.5572 93.9827 27.7822 93.9827 23.078C93.9827 18.3446 96.3619 14.6654 100.649 14.6654ZM100.674 17.7696C98.4911 17.7696 98.3535 20.7446 98.3535 22.5988C98.3535 24.4572 98.3244 28.4239 100.649 28.4239C102.945 28.4239 103.054 25.2239 103.054 23.2738C103.054 21.9905 102.999 20.4571 102.612 19.2405C102.279 18.1821 101.616 17.7696 100.674 17.7696Z" fill="#221F1F"/>
<path d="M113.124 31.2406H110.174C109.879 31.2197 109.641 30.9822 109.641 30.6906L109.637 15.4821C109.662 15.2029 109.908 14.9863 110.208 14.9863H112.954C113.212 14.9988 113.424 15.1738 113.483 15.4113V17.7363H113.537C114.366 15.6571 115.529 14.6654 117.574 14.6654C118.904 14.6654 120.199 15.1446 121.033 16.4571C121.808 17.6738 121.808 19.7196 121.808 21.1905V30.7614C121.774 31.0281 121.529 31.2406 121.237 31.2406H118.266C117.995 31.2197 117.77 31.0197 117.741 30.7614V22.503C117.741 20.8405 117.933 18.4071 115.887 18.4071C115.166 18.4071 114.504 18.8905 114.174 19.6238C113.758 20.553 113.704 21.478 113.704 22.503V30.6906C113.699 30.9947 113.441 31.2406 113.124 31.2406Z" fill="#221F1F"/>
<path d="M73.6534 23.978V23.3363C71.5117 23.3363 69.2492 23.7946 69.2492 26.3196C69.2492 27.5988 69.9117 28.4655 71.0492 28.4655C71.8826 28.4655 72.6284 27.953 73.0992 27.1196C73.6826 26.0946 73.6534 25.1321 73.6534 23.978ZM76.6409 31.1989C76.4451 31.3739 76.1618 31.3864 75.9409 31.2697C74.9576 30.453 74.7826 30.0738 74.2409 29.2947C72.6159 30.953 71.4659 31.4489 69.3575 31.4489C66.8659 31.4489 64.9242 29.9113 64.9242 26.8321C64.9242 24.428 66.2284 22.7904 68.0825 21.9904C69.6909 21.2821 71.9367 21.1571 73.6534 20.9613V20.5779C73.6534 19.8737 73.7076 19.0404 73.2951 18.4321C72.9326 17.8862 72.2409 17.6612 71.6326 17.6612C70.5034 17.6612 69.495 18.2404 69.2492 19.4404C69.1992 19.7071 69.0034 19.9696 68.7367 19.9821L65.8617 19.6737C65.62 19.6196 65.3534 19.4237 65.42 19.0529C66.0825 15.5695 69.2284 14.5195 72.0451 14.5195C73.4867 14.5195 75.3701 14.9029 76.5076 15.9945C77.9493 17.3404 77.8118 19.1362 77.8118 21.0904V25.7071C77.8118 27.0947 78.3868 27.703 78.9285 28.453C79.1201 28.7197 79.1618 29.0405 78.9201 29.2405C78.3159 29.7447 77.2409 30.6822 76.6493 31.2072L76.6409 31.1989Z" fill="#221F1F"/>
<path d="M34.8157 23.978V23.3363C32.674 23.3363 30.4115 23.7946 30.4115 26.3196C30.4115 27.5988 31.074 28.4655 32.2115 28.4655C33.0448 28.4655 33.7906 27.953 34.2615 27.1196C34.8448 26.0946 34.8157 25.1321 34.8157 23.978ZM37.8032 31.1989C37.6073 31.3739 37.324 31.3864 37.1032 31.2697C36.1198 30.453 35.9448 30.0738 35.4032 29.2947C33.7781 30.953 32.6281 31.4489 30.5198 31.4489C28.0281 31.4489 26.0864 29.9113 26.0864 26.8321C26.0864 24.428 27.3906 22.7904 29.2448 21.9904C30.8531 21.2821 33.099 21.1571 34.8157 20.9613V20.5779C34.8157 19.8737 34.8698 19.0404 34.4573 18.4321C34.0948 17.8862 33.4031 17.6612 32.7948 17.6612C31.6656 17.6612 30.6573 18.2404 30.4115 19.4404C30.3615 19.7071 30.1656 19.9696 29.899 19.9821L27.0239 19.6737C26.7823 19.6196 26.5156 19.4237 26.5823 19.0529C27.2448 15.5695 30.3906 14.5195 33.2073 14.5195C34.649 14.5195 36.5323 14.9029 37.6698 15.9945C39.1115 17.3404 38.974 19.1362 38.974 21.0904V25.7071C38.974 27.0947 39.549 27.703 40.0907 28.453C40.2824 28.7197 40.324 29.0405 40.0824 29.2405C39.4782 29.7447 38.4032 30.6822 37.8115 31.2072L37.8032 31.1989Z" fill="#221F1F"/>
</svg>
