<svg width="32" height="33" viewBox="0 0 32 33" fill="none" xmlns="http://www.w3.org/2000/svg">
<path d="M3.3335 6.1377C3.3335 5.58541 3.78121 5.1377 4.3335 5.1377H5.07785C6.34514 5.1377 7.10393 5.98969 7.53782 6.78169C7.82705 7.30962 8.03627 7.92193 8.19993 8.4763C8.24425 8.47281 8.28915 8.47103 8.33457 8.47103H24.9976C26.1046 8.47103 26.9039 9.53025 26.6004 10.5948L24.1634 19.1403C23.7143 20.7153 22.2751 21.8014 20.6373 21.8014H12.7065C11.0552 21.8014 9.60763 20.6976 9.1706 19.1051L8.15661 15.4104L6.47848 9.7454L6.47576 9.73548C6.26816 8.97838 6.07332 8.27109 5.7838 7.74262C5.50265 7.22943 5.27852 7.1377 5.07785 7.1377H4.3335C3.78121 7.1377 3.3335 6.68998 3.3335 6.1377ZM10.0973 14.9247L11.0993 18.5758C11.2979 19.2997 11.9559 19.8014 12.7065 19.8014H20.6373C21.3818 19.8014 22.0359 19.3077 22.2401 18.5918L24.5559 10.471H8.78082L10.0789 14.8535C10.0859 14.8772 10.0921 14.9009 10.0973 14.9247ZM14.6668 25.8044C14.6668 27.2771 13.4729 28.471 12.0002 28.471C10.5274 28.471 9.3335 27.2771 9.3335 25.8044C9.3335 24.3316 10.5274 23.1377 12.0002 23.1377C13.4729 23.1377 14.6668 24.3316 14.6668 25.8044ZM12.6668 25.8044C12.6668 25.4362 12.3684 25.1377 12.0002 25.1377C11.632 25.1377 11.3335 25.4362 11.3335 25.8044C11.3335 26.1726 11.632 26.471 12.0002 26.471C12.3684 26.471 12.6668 26.1726 12.6668 25.8044ZM24.0002 25.8044C24.0002 27.2771 22.8063 28.471 21.3335 28.471C19.8607 28.471 18.6668 27.2771 18.6668 25.8044C18.6668 24.3316 19.8607 23.1377 21.3335 23.1377C22.8063 23.1377 24.0002 24.3316 24.0002 25.8044ZM22.0002 25.8044C22.0002 25.4362 21.7017 25.1377 21.3335 25.1377C20.9653 25.1377 20.6668 25.4362 20.6668 25.8044C20.6668 26.1726 20.9653 26.471 21.3335 26.471C21.7017 26.471 22.0002 26.1726 22.0002 25.8044Z" fill="#0D0D0D"/>
</svg>
