<svg width="63" height="25" viewBox="0 0 63 25" fill="none" xmlns="http://www.w3.org/2000/svg">
<path d="M8.66834 5.45463C4.2674 5.45463 0.600098 7.3217 0.600098 12.9546C0.600098 17.417 3.06609 20.2272 8.78197 20.2272C15.5098 20.2272 15.9411 15.7954 15.9411 15.7954H12.6811C12.6811 15.7954 11.9822 18.1818 8.58311 18.1818C5.81465 18.1818 3.82347 16.3116 3.82347 13.6904H16.282V12.0455C16.282 9.45221 14.6357 5.45463 8.66834 5.45463ZM8.5547 7.55689C11.19 7.55689 12.9865 9.17129 12.9865 11.5909H3.89558C3.89558 9.02218 6.24055 7.55689 8.5547 7.55689Z" fill="#E53238"/>
<path d="M16.2802 0V17.3983C16.2802 18.3859 16.2097 19.7725 16.2097 19.7725H19.319C19.319 19.7725 19.4306 18.7766 19.4306 17.8664C19.4306 17.8664 20.9668 20.2697 25.1439 20.2697C29.5425 20.2697 32.5303 17.2159 32.5303 12.8408C32.5303 8.77065 29.7859 5.4971 25.151 5.4971C20.8107 5.4971 19.462 7.84083 19.462 7.84083V0H16.2802ZM24.3484 7.64907C27.3354 7.64907 29.2348 9.8659 29.2348 12.8408C29.2348 16.0308 27.041 18.1177 24.3697 18.1177C21.1817 18.1177 19.462 15.6286 19.462 12.8692C19.462 10.298 21.0051 7.64907 24.3484 7.64907Z" fill="#0064D2"/>
<path d="M40.2578 5.45463C33.6369 5.45463 33.2123 9.07984 33.2123 9.65914H36.5078C36.5078 9.65914 36.6806 7.54268 40.0305 7.54268C42.2074 7.54268 43.8942 8.53904 43.8942 10.4546V11.1364H40.0305C34.9012 11.1364 32.1896 12.6369 32.1896 15.6818C32.1896 18.6784 34.6951 20.3089 38.0809 20.3089C42.6954 20.3089 44.1818 17.7592 44.1818 17.7592C44.1818 18.7733 44.26 19.7727 44.26 19.7727H47.1897C47.1897 19.7727 47.076 18.534 47.076 17.7414V10.8914C47.076 6.39987 43.4531 5.45463 40.2578 5.45463ZM43.8942 13.1818V14.0909C43.8942 15.2766 43.1625 18.2244 38.8551 18.2244C36.4964 18.2244 35.485 17.0472 35.485 15.6818C35.485 13.1978 38.8907 13.1818 43.8942 13.1818Z" fill="#F5AF02"/>
<path d="M45.3 6.02292H49.0074L54.3281 16.6823L59.6366 6.02292H62.9949L53.3256 25H49.8029L52.5931 19.7099L45.3 6.02292Z" fill="#86B817"/>
</svg>
