<svg width="34" height="34" viewBox="0 0 34 34" fill="none" xmlns="http://www.w3.org/2000/svg">
<path d="M26.2082 14.1667L26.7636 13.6627C26.6214 13.506 26.4197 13.4167 26.2082 13.4167V14.1667ZM31.1665 19.631H31.9165C31.9165 19.4446 31.8471 19.265 31.7219 19.127L31.1665 19.631ZM31.1665 25.5L31.1666 26.25C31.5808 26.2499 31.9165 25.9142 31.9165 25.5H31.1665ZM28.2124 25.5004L27.5052 25.7502V25.7502L28.2124 25.5004ZM24.2039 25.5004L24.9111 25.7502V25.7502L24.2039 25.5004ZM21.2498 14.1667V13.4167C20.8356 13.4167 20.4998 13.7525 20.4998 14.1667H21.2498ZM1.4165 7.75C1.00229 7.75 0.666504 8.08579 0.666504 8.5C0.666504 8.91421 1.00229 9.25 1.4165 9.25V7.75ZM21.2498 8.5H21.9998C21.9998 8.08579 21.6641 7.75 21.2498 7.75V8.5ZM5.66671 24.75C5.25249 24.7499 4.91662 25.0856 4.9165 25.4998C4.91639 25.914 5.25209 26.2499 5.6663 26.25L5.66671 24.75ZM6.37484 17.75C6.78905 17.75 7.12484 17.4142 7.12484 17C7.12484 16.5858 6.78905 16.25 6.37484 16.25V17.75ZM4.24984 16.25C3.83562 16.25 3.49984 16.5858 3.49984 17C3.49984 17.4142 3.83562 17.75 4.24984 17.75V16.25ZM6.37484 22C6.78905 22 7.12484 21.6642 7.12484 21.25C7.12484 20.8358 6.78905 20.5 6.37484 20.5V22ZM5.6665 20.5C5.25229 20.5 4.9165 20.8358 4.9165 21.25C4.9165 21.6642 5.25229 22 5.6665 22V20.5ZM6.37484 13.5C6.78905 13.5 7.12484 13.1642 7.12484 12.75C7.12484 12.3358 6.78905 12 6.37484 12V13.5ZM2.83317 12C2.41896 12 2.08317 12.3358 2.08317 12.75C2.08317 13.1642 2.41896 13.5 2.83317 13.5V12ZM25.6528 14.6707L30.6111 20.1349L31.7219 19.127L26.7636 13.6627L25.6528 14.6707ZM30.4165 19.631V25.5H31.9165V19.631H30.4165ZM31.1664 24.75L28.2123 24.7504L28.2125 26.2504L31.1666 26.25L31.1664 24.75ZM28.9196 25.2506C28.5254 24.1347 27.4613 23.3333 26.2082 23.3333V24.8333C26.8058 24.8333 27.3162 25.215 27.5052 25.7502L28.9196 25.2506ZM26.2082 23.3333C24.955 23.3333 23.8909 24.1347 23.4968 25.2506L24.9111 25.7502C25.1002 25.215 25.6106 24.8333 26.2082 24.8333V23.3333ZM24.204 24.7504L21.2499 24.75L21.2497 26.25L24.2038 26.2504L24.204 24.7504ZM21.9998 25.5V14.1667H20.4998V25.5H21.9998ZM21.2498 14.9167H26.2082V13.4167H21.2498V14.9167ZM1.4165 9.25H21.2498V7.75H1.4165V9.25ZM20.4998 8.5V25.5H21.9998V8.5H20.4998ZM21.2498 24.75L11.2124 24.7504L11.2124 26.2504L21.2499 26.25L21.2498 24.75ZM11.9196 25.2506C11.5254 24.1347 10.4613 23.3333 9.20817 23.3333V24.8333C9.80578 24.8333 10.3162 25.215 10.5052 25.7502L11.9196 25.2506ZM9.20817 23.3333C7.955 23.3333 6.89092 24.1347 6.49676 25.2506L7.91112 25.7502C8.10016 25.215 8.61056 24.8333 9.20817 24.8333V23.3333ZM7.20414 24.7504L5.66671 24.75L5.6663 26.25L7.20374 26.2504L7.20414 24.7504ZM26.2082 24.8333C26.9676 24.8333 27.5832 25.4489 27.5832 26.2083H29.0832C29.0832 24.6205 27.796 23.3333 26.2082 23.3333V24.8333ZM27.5832 26.2083C27.5832 26.9677 26.9676 27.5833 26.2082 27.5833V29.0833C27.796 29.0833 29.0832 27.7962 29.0832 26.2083H27.5832ZM26.2082 27.5833C25.4488 27.5833 24.8332 26.9677 24.8332 26.2083H23.3332C23.3332 27.7962 24.6204 29.0833 26.2082 29.0833V27.5833ZM24.8332 26.2083C24.8332 25.4489 25.4488 24.8333 26.2082 24.8333V23.3333C24.6204 23.3333 23.3332 24.6205 23.3332 26.2083H24.8332ZM9.20817 24.8333C9.96756 24.8333 10.5832 25.4489 10.5832 26.2083H12.0832C12.0832 24.6205 10.796 23.3333 9.20817 23.3333V24.8333ZM10.5832 26.2083C10.5832 26.9677 9.96756 27.5833 9.20817 27.5833V29.0833C10.796 29.0833 12.0832 27.7962 12.0832 26.2083H10.5832ZM9.20817 27.5833C8.44878 27.5833 7.83317 26.9677 7.83317 26.2083H6.33317C6.33317 27.7962 7.62035 29.0833 9.20817 29.0833V27.5833ZM7.83317 26.2083C7.83317 25.4489 8.44878 24.8333 9.20817 24.8333V23.3333C7.62035 23.3333 6.33317 24.6205 6.33317 26.2083H7.83317ZM6.37484 16.25H4.24984V17.75H6.37484V16.25ZM6.37484 20.5H5.6665V22H6.37484V20.5ZM6.37484 12H2.83317V13.5H6.37484V12ZM23.4968 25.2506C23.3906 25.5512 23.3332 25.8739 23.3332 26.2083H24.8332C24.8332 26.0464 24.8609 25.8925 24.9111 25.7502L23.4968 25.2506ZM29.0832 26.2083C29.0832 25.8739 29.0257 25.5512 28.9196 25.2506L27.5052 25.7502C27.5555 25.8925 27.5832 26.0464 27.5832 26.2083H29.0832ZM6.49676 25.2506C6.3906 25.5512 6.33317 25.8739 6.33317 26.2083H7.83317C7.83317 26.0464 7.86085 25.8925 7.91112 25.7502L6.49676 25.2506ZM12.0832 26.2083C12.0832 25.8739 12.0257 25.5512 11.9196 25.2506L10.5052 25.7502C10.5555 25.8925 10.5832 26.0464 10.5832 26.2083H12.0832Z" fill="black"/>
</svg>
