<svg width="32" height="33" viewBox="0 0 32 33" fill="none" xmlns="http://www.w3.org/2000/svg">
<path d="M17.0932 7.91051L15.9989 9.00718L14.9013 7.90951C12.1025 5.11076 7.56482 5.11076 4.76606 7.90951C1.9673 10.7083 1.9673 15.246 4.76606 18.0447L15.2932 28.5719C15.6837 28.9624 16.3169 28.9624 16.7074 28.5719L27.2427 18.0428C30.0352 15.2347 30.04 10.7098 27.2408 7.91051C24.4369 5.10665 19.8971 5.10666 17.0932 7.91051ZM25.8246 16.6325L16.0003 26.4506L6.18027 16.6305C4.16256 14.6128 4.16256 11.3414 6.18027 9.32373C8.19798 7.30602 11.4693 7.30602 13.487 9.32373L15.297 11.1337C15.6941 11.5308 16.3404 11.5231 16.7279 11.1165L18.5074 9.32472C20.5302 7.30192 23.8037 7.30192 25.8266 9.32472C27.8447 11.3429 27.8413 14.6046 25.8246 16.6325Z" fill="#0D0D0D"/>
</svg>
