<svg width="89" height="37" viewBox="0 0 89 37" fill="none" xmlns="http://www.w3.org/2000/svg">
<path d="M83.3124 6.8833C83.3124 6.94859 83.3124 7.03021 83.2958 7.07919C83.2124 7.71582 83.2124 8.35245 83.2623 9.00541C83.2958 9.16865 83.3291 9.33189 83.4626 9.46248C83.6794 9.70733 84.0129 9.65837 84.1464 9.36454C84.2131 9.21762 84.2131 9.0707 84.1797 8.92379C84.0129 8.30348 83.9795 7.65053 83.9629 7.01388C83.9629 6.98124 83.9629 6.93226 83.9629 6.8833C84.1464 6.86697 84.3132 6.85064 84.4632 6.85064C84.58 6.83433 84.6801 6.818 84.7635 6.76902C85.0136 6.63844 85.0136 6.36094 84.7467 6.23034C84.6467 6.18137 84.5133 6.16504 84.3966 6.16504C83.9795 6.18137 83.5626 6.18137 83.1456 6.18137C82.9956 6.18137 82.8454 6.1977 82.6953 6.21401C82.6119 6.23034 82.5118 6.23034 82.4452 6.27932C82.3283 6.32828 82.2617 6.4099 82.2617 6.52416C82.2784 6.63844 82.3283 6.70373 82.4452 6.75271C82.5118 6.80168 82.5952 6.818 82.6786 6.818C82.8787 6.83433 83.0956 6.86697 83.3124 6.8833ZM87.899 7.6342C87.899 7.65053 87.9156 7.66684 87.9156 7.66684C87.9824 8.10759 88.0491 8.53202 88.0991 8.95643C88.1159 9.10335 88.1325 9.23394 88.2326 9.34821C88.4494 9.62571 88.783 9.59307 88.933 9.29924C88.9998 9.15232 89.0164 9.00541 88.9831 8.84217C88.8831 8.35245 88.833 7.86273 88.7329 7.38934C88.6662 7.0955 88.5829 6.818 88.4995 6.55682C88.4494 6.39358 88.3327 6.2793 88.1325 6.26299C87.9324 6.23034 87.7823 6.32828 87.6989 6.4752C87.5988 6.60578 87.5154 6.73638 87.4486 6.8833C87.3319 7.14448 87.2319 7.40567 87.0985 7.65053C87.0817 7.71582 87.0651 7.76479 87.0317 7.81376C87.0151 7.78111 86.9984 7.76479 86.9984 7.76479C86.7815 7.35669 86.5814 6.94859 86.3646 6.55682C86.3312 6.52416 86.3145 6.49152 86.2979 6.45887C86.1978 6.31196 86.0811 6.23034 85.8976 6.23034C85.7308 6.24666 85.5973 6.34461 85.514 6.49152C85.4806 6.55682 85.4806 6.60578 85.4639 6.67109C85.3972 7.19345 85.3138 7.71582 85.2472 8.23818C85.2137 8.53202 85.1971 8.82584 85.1971 9.11968C85.1804 9.18497 85.1971 9.26659 85.2304 9.33189C85.2638 9.46247 85.3639 9.5441 85.4973 9.56042C85.6641 9.57675 85.7808 9.52778 85.8309 9.39718C85.8808 9.29924 85.8976 9.21762 85.9143 9.136C85.981 8.84217 86.031 8.56466 86.0811 8.28716C86.1144 8.12392 86.1311 7.99332 86.1811 7.81376C86.2145 7.87906 86.2478 7.92803 86.2812 7.977C86.4312 8.17289 86.5814 8.36878 86.7649 8.53202C86.9483 8.6626 87.0985 8.64628 87.2485 8.49936C87.2819 8.46672 87.2986 8.4504 87.3319 8.41774C87.4821 8.18921 87.6655 7.96068 87.8156 7.73214C87.849 7.69949 87.8657 7.66684 87.899 7.6342Z" fill="#3A3B7B"/>
<path d="M49.4696 7.20427C49.3537 7.5145 49.3315 7.738 49.3851 7.92377C49.4442 8.17638 49.5976 8.25908 49.8059 8.19484C51.7649 7.72071 56.0607 9.06649 57.6511 9.44157C58.0262 9.52033 58.3313 9.04643 58.0754 8.62154C57.7019 8.21007 53.408 6.4484 51.7696 6.35235C51.1274 6.31682 49.9793 6.15565 49.4696 7.20427Z" fill="#3A3B7B"/>
<path d="M66.2585 1.50135C66.4673 1.61929 66.584 1.7318 66.6416 1.85751C66.7274 2.0224 66.6822 2.13649 66.538 2.1947C65.243 2.81327 63.5199 5.47634 62.8243 6.3948C62.6557 6.60609 62.2667 6.48331 62.208 6.13585C62.2201 5.74299 63.7476 2.85297 64.6001 2.06583C64.9351 1.7585 65.4885 1.15549 66.2585 1.50135Z" fill="#3A3B7B"/>
<path d="M55.9459 0.190649C56.1967 0.00562403 56.4574 -0.0592144 56.5905 0.0610288C58.5443 1.69642 59.5804 4.2862 60.2219 6.65709C60.2461 6.71233 60.2476 6.79159 60.2283 6.87428C60.2203 6.94495 60.1675 7.01961 60.0837 7.07738C59.9942 7.14116 59.9172 7.16058 59.8809 7.10562C59.0246 5.96568 54.1338 1.53035 55.9459 0.190649Z" fill="#3A3B7B"/>
<path d="M14.5718 28.5448C15.0401 28.2036 15.5492 27.9195 16.0879 27.699C16.6515 27.5414 17.2523 27.5674 17.7994 27.7736C18.3463 27.9798 18.81 28.3546 19.12 28.8416C19.3973 29.3272 19.5057 29.888 19.4292 30.4394C19.3527 30.9906 19.0952 31.5026 18.6955 31.8983C18.3856 32.219 18.0338 32.4984 17.6495 32.7292C15.9363 33.8125 14.208 34.8362 12.4797 35.9195C12.126 36.1906 11.7509 36.4338 11.3578 36.6466C10.7599 36.9384 10.0765 37.0166 9.42596 36.8675C8.7754 36.7186 8.1985 36.3517 7.79503 35.8305C7.49341 35.4614 7.23885 35.0578 7.03699 34.6285C5.39964 31.2603 3.70166 27.9068 2.12495 24.479C1.39724 22.9953 0.805975 21.2888 0.229872 19.6418C-0.0193774 19.1632 -0.0680501 18.6085 0.0942175 18.0953C0.256485 17.5821 0.616891 17.1512 1.09877 16.8941C1.58065 16.637 2.14598 16.5741 2.67454 16.7187C3.2031 16.8633 3.65318 17.204 3.92906 17.6683C4.77704 18.7712 5.52768 19.9428 6.17284 21.1702C7.81018 24.1378 9.37174 27.1054 10.9484 29.9841C11.0402 30.1432 11.1415 30.2967 11.2516 30.4441C12.4384 29.9557 13.5546 29.3172 14.5718 28.5448Z" fill="#3A3B7B"/>
<path d="M46.7831 19.378C46.3998 19.4587 46.0038 19.4635 45.6184 19.3921C45.2331 19.3207 44.8662 19.1748 44.5395 18.9626C44.2535 18.8025 44.0074 18.5824 43.8187 18.3181C43.6301 18.0537 43.5038 17.7518 43.4487 17.4339C43.3935 17.1161 43.4112 16.7903 43.5001 16.4799C43.5891 16.1695 43.7474 15.8822 43.9634 15.6387C44.3397 15.1495 44.874 14.7992 45.4794 14.6446C47.0602 14.1956 48.6875 13.9218 50.3308 13.8285C50.6919 13.7874 51.0577 13.8173 51.4067 13.9165C51.7558 14.0158 52.0811 14.1821 52.3636 14.4061C52.646 14.63 52.8799 14.9069 53.0515 15.2205C53.2231 15.5341 53.329 15.8781 53.3629 16.2323C53.8367 17.9722 53.8885 19.7964 53.5145 21.5593C52.1501 27.2572 47.4503 29.2158 42.1743 27.3907C40.6934 26.9028 39.3949 25.9935 38.4449 24.7792C37.1778 23.3168 36.2794 21.5838 35.822 19.7194C35.4515 18.0591 35.4921 16.3363 35.9405 14.6946C36.3888 13.0529 37.2319 11.54 38.3993 10.2821C39.5073 8.91502 40.9453 7.8391 42.5837 7.15125C43.6191 6.59271 44.8306 6.4339 45.9797 6.7061C46.2404 6.77671 46.477 6.91429 46.665 7.10458C46.8531 7.29488 46.9857 7.53093 47.0491 7.78829C47.1126 8.04563 47.1044 8.31491 47.0257 8.56818C46.9469 8.82144 46.8004 9.04947 46.6013 9.22862C46.2227 9.56405 45.8114 9.86225 45.3733 10.1189C44.0254 10.959 42.8525 12.0415 41.9166 13.3091C41.3032 14.1294 40.8807 15.0714 40.679 16.0685C40.4772 17.0657 40.5013 18.0941 40.7493 19.0813C41.0931 20.4274 41.8561 21.6356 42.9324 22.5386C46.2677 25.5063 50.6037 22.6424 49.8456 18.5916C48.739 18.8587 47.7686 19.1406 46.7831 19.378Z" fill="#3A3B7B"/>
<path d="M67.1592 27.7465C62.232 30.7142 56.6226 27.7465 55.3945 21.5145C54.5 17.063 56.198 10.8308 62.1411 8.45669C63.4055 7.96243 64.777 7.78889 66.1283 7.95218C67.7518 8.24306 69.2411 9.02532 70.3862 10.1887C71.5312 11.352 72.2745 12.8378 72.5109 14.4366C73.5115 19.7338 71.2374 25.3872 67.1592 27.7465ZM68.8724 17.7603C68.8709 16.5277 68.4254 15.3349 67.6141 14.392C67.1804 13.8089 66.5534 13.391 65.8402 13.2097C65.1268 13.0284 64.3714 13.0949 63.7025 13.3979C61.0343 14.5255 59.1544 18.6209 59.8366 21.6332C59.8887 22.1059 60.0456 22.5618 60.2965 22.9689C60.5473 23.3761 60.8861 23.7247 61.289 23.9904C61.6918 24.256 62.1491 24.4324 62.6288 24.5071C63.1086 24.5817 63.5993 24.553 64.0664 24.4228C65.4768 23.9405 66.698 23.0393 67.5595 21.8449C68.4212 20.6504 68.8802 19.2224 68.8724 17.7603Z" fill="#3A3B7B"/>
<path d="M77.4935 28.9928C77.4191 29.5358 77.1275 30.0278 76.6825 30.3603C76.2375 30.6928 75.6758 30.8387 75.1209 30.7659C74.5661 30.6931 74.0635 30.4075 73.7237 29.972C73.3839 29.5366 73.2349 28.9868 73.3093 28.4437C73.3836 27.9006 73.6754 27.4087 74.1203 27.0762C74.5653 26.7436 75.127 26.5977 75.6819 26.6706C76.2367 26.7434 76.7393 27.0288 77.0792 27.4644C77.4189 27.8999 77.568 28.4497 77.4935 28.9928ZM76.1745 8.97579C76.4629 8.54478 76.8859 8.21655 77.3805 8.04006C77.875 7.86357 78.4145 7.84828 78.9187 7.99646C79.4312 8.12196 79.8839 8.41598 80.2014 8.82927C80.5188 9.24257 80.6814 9.75005 80.6622 10.2667C80.5953 11.0955 80.4687 11.9186 80.2832 12.7299C79.7829 15.475 79.2977 18.22 78.7671 20.9355C78.5245 22.0187 78.2062 23.0574 77.8574 24.1554C77.7361 24.4986 77.5334 24.8088 77.2662 25.0606C77.1 25.2499 76.8878 25.3952 76.649 25.4828C76.4103 25.5707 76.1528 25.598 75.9004 25.5625C75.648 25.527 75.4088 25.4298 75.205 25.2798C75.0011 25.1298 74.8393 24.9319 74.7344 24.7044C74.5541 24.2964 74.4562 23.858 74.4463 23.4135C74.4463 21.5735 74.4463 19.7188 74.5676 17.8639C74.7737 15.2169 75.179 12.5883 75.7804 9.99963C75.8512 9.65281 75.9846 9.32115 76.1745 9.02031V8.97579Z" fill="#3A3B7B"/>
<path d="M22.2159 10.723C24.0007 9.91622 26.2116 9.77686 27.9416 10.3441C28.3773 10.4683 28.7553 10.737 29.011 11.1042C29.2651 11.4691 29.3823 11.9088 29.3431 12.3484C29.3406 12.6337 29.269 12.9145 29.1344 13.1678C28.9973 13.4256 28.7988 13.6473 28.5557 13.8143C28.3126 13.9812 28.032 14.0885 27.7377 14.1268C27.4432 14.1652 27.1438 14.1337 26.8645 14.0348L26.8432 14.0273L26.8233 14.0169C26.6804 13.9438 26.5286 13.8887 26.3715 13.8528L26.3616 13.8506C25.1446 13.5342 23.9966 14.0584 23.5773 14.7026C23.3773 15.0097 23.3525 15.3197 23.5191 15.6017C23.6975 15.9038 24.135 16.2427 25.0203 16.4843C25.2637 16.5497 25.5133 16.6128 25.7665 16.6769C26.4665 16.8544 27.194 17.0387 27.8975 17.2941L27.9002 17.2951C31.1456 18.5037 32.3541 21.0068 31.9404 23.3611C31.5311 25.6893 29.5445 27.8081 26.557 28.3079C25.47 28.5437 24.3387 28.4978 23.2751 28.1746C22.2089 27.8505 21.2478 27.259 20.4874 26.4587L20.4675 26.4379C20.2275 26.1364 20.066 25.7822 19.9944 25.4063C19.9286 25.0671 19.9633 24.7166 20.0942 24.396C20.2244 24.0773 20.4446 23.8015 20.7288 23.6006C21.029 23.3728 21.3908 23.2361 21.7696 23.2076C22.1471 23.1792 22.5248 23.2595 22.8563 23.4384C23.1874 23.595 23.4953 23.7947 23.7717 24.0322L23.7769 24.0365C24.2659 24.4742 24.8575 24.5882 25.4248 24.4826C26.0004 24.3754 26.5417 24.0421 26.8898 23.5998C27.2356 23.1603 27.3744 22.6383 27.2097 22.1315C27.0439 21.621 26.5453 21.049 25.45 20.5709C25.1637 20.4519 24.8668 20.3559 24.558 20.2625C24.4747 20.2373 24.39 20.2122 24.3043 20.1867C24.076 20.1189 23.841 20.049 23.6106 19.972C23.452 19.9191 23.2946 19.8689 23.1387 19.8192C22.7126 19.6834 22.2972 19.551 21.8975 19.3735C21.0275 19.0835 20.2758 18.5269 19.7544 17.7857C19.2308 17.0417 18.9674 16.1519 19.0032 15.2493C19.006 13.0497 20.4215 11.5342 22.2159 10.723Z" fill="#3A3B7B"/>
</svg>
