<svg width="34" height="34" viewBox="0 0 34 34" fill="none" xmlns="http://www.w3.org/2000/svg">
<g clip-path="url(#clip0_8_1291)">
<path d="M14.875 29.7497H9.20833C4.131 29.7497 0 25.6187 0 20.5413C0 15.464 4.131 11.333 9.20833 11.333H14.875C15.0629 11.333 15.243 11.4076 15.3759 11.5405C15.5087 11.6733 15.5833 11.8535 15.5833 12.0413V16.2913C15.5833 16.4792 15.5087 16.6594 15.3759 16.7922C15.243 16.925 15.0629 16.9997 14.875 16.9997H9.20833C7.25475 16.9997 5.66667 18.5878 5.66667 20.5413C5.66667 22.4949 7.25475 24.083 9.20833 24.083H14.875C15.0629 24.083 15.243 24.1576 15.3759 24.2905C15.5087 24.4233 15.5833 24.6035 15.5833 24.7913V29.0413C15.5833 29.2292 15.5087 29.4094 15.3759 29.5422C15.243 29.675 15.0629 29.7497 14.875 29.7497ZM9.20833 12.7497C4.913 12.7497 1.41667 16.246 1.41667 20.5413C1.41667 24.8367 4.913 28.333 9.20833 28.333H14.1667V25.4997H9.20833C6.47417 25.4997 4.25 23.2755 4.25 20.5413C4.25 17.8072 6.47417 15.583 9.20833 15.583H14.1667V12.7497H9.20833Z" fill="black"/>
<path d="M10.6248 17C10.437 17 10.2568 16.9254 10.124 16.7925C9.99113 16.6597 9.9165 16.4795 9.9165 16.2917V12.0417C9.9165 11.8538 9.99113 11.6736 10.124 11.5408C10.2568 11.408 10.437 11.3333 10.6248 11.3333C10.8127 11.3333 10.9929 11.408 11.1257 11.5408C11.2585 11.6736 11.3332 11.8538 11.3332 12.0417V16.2917C11.3332 16.4795 11.2585 16.6597 11.1257 16.7925C10.9929 16.9254 10.8127 17 10.6248 17ZM10.6248 29.75C10.437 29.75 10.2568 29.6754 10.124 29.5425C9.99113 29.4097 9.9165 29.2295 9.9165 29.0417V24.7917C9.9165 24.6038 9.99113 24.4236 10.124 24.2908C10.2568 24.158 10.437 24.0833 10.6248 24.0833C10.8127 24.0833 10.9929 24.158 11.1257 24.2908C11.2585 24.4236 11.3332 24.6038 11.3332 24.7917V29.0417C11.3332 29.2295 11.2585 29.4097 11.1257 29.5425C10.9929 29.6754 10.8127 29.75 10.6248 29.75ZM26.2082 34H16.2915C15.0576 34 13.9285 33.7549 12.934 33.2732C12.8503 33.2327 12.7754 33.176 12.7136 33.1065C12.6517 33.037 12.6042 32.956 12.5737 32.8682C12.5432 32.7803 12.5302 32.6873 12.5357 32.5944C12.5411 32.5015 12.5648 32.4106 12.6053 32.3269C12.6459 32.2432 12.7025 32.1683 12.772 32.1065C12.8416 32.0446 12.9226 31.9971 13.0104 31.9666C13.0983 31.9361 13.1913 31.9232 13.2842 31.9286C13.3771 31.934 13.468 31.9577 13.5517 31.9982C14.3521 32.3864 15.2729 32.5833 16.2915 32.5833H26.2082C30.9129 32.5833 32.5832 28.3857 32.5832 24.7917C32.5832 18.7609 29.4835 12.5432 25.1896 9.91667H17.1132C16.9253 9.91667 16.7451 9.84204 16.6123 9.7092C16.4795 9.57636 16.4048 9.39619 16.4048 9.20833C16.4048 9.02047 16.4795 8.8403 16.6123 8.70747C16.7451 8.57463 16.9253 8.5 17.1132 8.5H25.3865C25.5126 8.5 25.6373 8.53258 25.7449 8.59633C30.529 11.4042 33.9998 18.2141 33.9998 24.7917C33.9998 29.3746 31.5915 34 26.2082 34Z" fill="black"/>
<path d="M26.2082 9.91699H16.2915C15.1199 9.91699 14.1665 8.96358 14.1665 7.79199C14.1665 6.62041 15.1199 5.66699 16.2915 5.66699H26.2082C27.3798 5.66699 28.3332 6.62041 28.3332 7.79199C28.3332 8.96358 27.3798 9.91699 26.2082 9.91699ZM16.2915 7.08366C15.9019 7.08366 15.5832 7.40241 15.5832 7.79199C15.5832 8.18158 15.9019 8.50033 16.2915 8.50033H26.2082C26.5978 8.50033 26.9165 8.18158 26.9165 7.79199C26.9165 7.40241 26.5978 7.08366 26.2082 7.08366H16.2915Z" fill="black"/>
<path d="M24.7915 7.08341C24.6445 7.08381 24.5009 7.03843 24.3808 6.95358C24.2607 6.86872 24.17 6.74859 24.1213 6.60984C24.0725 6.4711 24.0682 6.32063 24.1088 6.17931C24.1495 6.03798 24.2331 5.91281 24.3481 5.82116L28.2765 2.67758C28.394 2.58782 28.4795 2.46263 28.5203 2.32051C28.5611 2.1784 28.5551 2.02692 28.5032 1.88849C28.4575 1.74854 28.3679 1.62706 28.2477 1.54207C28.1275 1.45709 27.9831 1.41313 27.8359 1.41674H14.6623C14.515 1.41405 14.3707 1.45851 14.2504 1.54363C14.1301 1.62875 14.0401 1.75007 13.9937 1.88991C13.9422 2.02839 13.9364 2.17973 13.9772 2.32174C14.018 2.46375 14.1032 2.58895 14.2203 2.67899L18.1488 5.82258C18.2214 5.88071 18.2819 5.95259 18.3268 6.0341C18.3716 6.11562 18.4 6.20517 18.4103 6.29765C18.4205 6.39013 18.4125 6.48372 18.3866 6.57309C18.3606 6.66246 18.3174 6.74584 18.2593 6.81849C18.2011 6.89114 18.1292 6.95163 18.0477 6.9965C17.9662 7.04137 17.8767 7.06974 17.7842 7.08C17.6917 7.09026 17.5981 7.08221 17.5087 7.0563C17.4194 7.03039 17.336 6.98713 17.2633 6.92899L13.3363 3.78541C12.9895 3.5123 12.7375 3.13694 12.6159 2.71256C12.4944 2.28817 12.5095 1.8363 12.6592 1.42099C12.8017 1.00361 13.0721 0.641715 13.4319 0.386661C13.7917 0.131607 14.2227 -0.00365272 14.6638 7.50322e-05H27.8373C28.7525 7.50322e-05 29.5388 0.558242 29.8419 1.42099C30.1451 2.28516 29.8788 3.21308 29.1633 3.78541L25.2349 6.92899C25.1086 7.02869 24.9524 7.08307 24.7915 7.08341ZM21.9582 26.2084H18.4165C18.2286 26.2084 18.0485 26.1338 17.9156 26.0009C17.7828 25.8681 17.7082 25.6879 17.7082 25.5001C17.7082 25.3122 17.7828 25.132 17.9156 24.9992C18.0485 24.8664 18.2286 24.7917 18.4165 24.7917H21.9582C22.3339 24.7917 22.6942 24.6425 22.9599 24.3768C23.2256 24.1111 23.3748 23.7508 23.3748 23.3751C23.3748 22.9994 23.2256 22.639 22.9599 22.3733C22.6942 22.1077 22.3339 21.9584 21.9582 21.9584H20.5415C18.9789 21.9584 17.7082 20.6877 17.7082 19.1251C17.7082 17.5625 18.9789 16.2917 20.5415 16.2917H24.0832C24.271 16.2917 24.4512 16.3664 24.584 16.4992C24.7169 16.632 24.7915 16.8122 24.7915 17.0001C24.7915 17.1879 24.7169 17.3681 24.584 17.5009C24.4512 17.6338 24.271 17.7084 24.0832 17.7084H20.5415C20.1658 17.7084 19.8054 17.8577 19.5398 18.1233C19.2741 18.389 19.1248 18.7494 19.1248 19.1251C19.1248 19.5008 19.2741 19.8611 19.5398 20.1268C19.8054 20.3925 20.1658 20.5417 20.5415 20.5417H21.9582C23.5208 20.5417 24.7915 21.8125 24.7915 23.3751C24.7915 24.9377 23.5208 26.2084 21.9582 26.2084Z" fill="black"/>
<path d="M21.2498 28.3337C21.062 28.3337 20.8818 28.259 20.749 28.1262C20.6161 27.9934 20.5415 27.8132 20.5415 27.6253V25.5003C20.5415 25.3125 20.6161 25.1323 20.749 24.9995C20.8818 24.8666 21.062 24.792 21.2498 24.792C21.4377 24.792 21.6179 24.8666 21.7507 24.9995C21.8835 25.1323 21.9582 25.3125 21.9582 25.5003V27.6253C21.9582 27.8132 21.8835 27.9934 21.7507 28.1262C21.6179 28.259 21.4377 28.3337 21.2498 28.3337ZM21.2498 17.7087C21.062 17.7087 20.8818 17.634 20.749 17.5012C20.6161 17.3684 20.5415 17.1882 20.5415 17.0003V14.8753C20.5415 14.6875 20.6161 14.5073 20.749 14.3745C20.8818 14.2416 21.062 14.167 21.2498 14.167C21.4377 14.167 21.6179 14.2416 21.7507 14.3745C21.8835 14.5073 21.9582 14.6875 21.9582 14.8753V17.0003C21.9582 17.1882 21.8835 17.3684 21.7507 17.5012C21.6179 17.634 21.4377 17.7087 21.2498 17.7087Z" fill="black"/>
</g>
<defs>
<clipPath id="clip0_8_1291">
<rect width="34" height="34" fill="white"/>
</clipPath>
</defs>
</svg>
