<svg width="34" height="34" viewBox="0 0 34 34" fill="none" xmlns="http://www.w3.org/2000/svg">
<g clip-path="url(#clip0_8_1310)">
<path d="M30.4585 24.0837H15.6543C15.4665 24.0837 15.2863 24.009 15.1535 23.8762C15.0206 23.7434 14.946 23.5632 14.946 23.3753C14.946 23.1875 15.0206 23.0073 15.1535 22.8745C15.2863 22.7416 15.4665 22.667 15.6543 22.667H30.4585C31.6301 22.667 32.5835 21.7136 32.5835 20.542V9.20866C32.5835 8.03708 31.6301 7.08366 30.4585 7.08366H10.6252C9.45358 7.08366 8.50016 8.03708 8.50016 9.20866V19.5971C8.50016 19.7849 8.42553 19.9651 8.2927 20.0979C8.15986 20.2308 7.97969 20.3054 7.79183 20.3054C7.60397 20.3054 7.4238 20.2308 7.29096 20.0979C7.15812 19.9651 7.0835 19.7849 7.0835 19.5971V9.20866C7.0835 7.25508 8.673 5.66699 10.6252 5.66699H30.4585C32.4107 5.66699 34.0002 7.25508 34.0002 9.20866V20.542C34.0002 22.4956 32.4107 24.0837 30.4585 24.0837Z" fill="black"/>
<path d="M0.708509 28.3333C0.52926 28.3335 0.356614 28.2657 0.225375 28.1436C0.094137 28.0215 0.0140676 27.8542 0.00130939 27.6754C-0.0114488 27.4966 0.0440531 27.3196 0.156626 27.1802C0.269198 27.0407 0.430469 26.949 0.607926 26.9238L7.98593 25.8698C9.56922 25.6464 11.0913 25.1063 12.4612 24.2817L16.0269 22.1411C16.4013 21.9143 16.6913 21.5715 16.8527 21.1647C17.0142 20.7579 17.0383 20.3094 16.9214 19.8877C16.8044 19.4659 16.5528 19.0939 16.2049 18.8284C15.857 18.5628 15.4318 18.4183 14.9942 18.4167C14.0663 18.4167 13.1568 18.5909 12.294 18.9352L6.63726 21.199C6.46566 21.2569 6.2784 21.2469 6.11394 21.1711C5.94949 21.0952 5.82034 20.9592 5.75305 20.7911C5.68575 20.6229 5.68542 20.4354 5.75212 20.267C5.81882 20.0986 5.94749 19.9622 6.11168 19.8858L11.7684 17.6219C12.7939 17.2099 13.889 16.9987 14.9942 17C15.9016 17.0004 16.7717 17.3609 17.4135 18.0024C18.0552 18.6439 18.4161 19.5139 18.4168 20.4213C18.4168 21.6183 17.7793 22.7418 16.7551 23.3552L13.1893 25.4958C11.6572 26.4168 9.95565 27.0209 8.18568 27.2723L0.807676 28.3263C0.774805 28.3307 0.741682 28.3331 0.708509 28.3333ZM21.9217 28.3333C21.4897 28.3356 21.0635 28.2342 20.6789 28.0374C20.2943 27.8407 19.9626 27.5545 19.7117 27.2028C19.4572 26.8535 19.2903 26.4482 19.2249 26.021C19.1596 25.5938 19.1978 25.1572 19.3363 24.7478L19.8689 23.1512C19.9163 23.0102 20.0068 22.8876 20.1275 22.8007C20.2482 22.7138 20.3931 22.6669 20.5418 22.6667H24.7918C24.9041 22.6664 25.0149 22.693 25.1148 22.744C25.2148 22.7951 25.3012 22.8693 25.3669 22.9604C25.4325 23.0515 25.4755 23.1569 25.4923 23.268C25.509 23.379 25.4991 23.4924 25.4633 23.5988L24.5057 26.4704C24.3259 27.0134 23.9793 27.4858 23.5153 27.8203C23.0513 28.1548 22.4936 28.3343 21.9217 28.3333ZM21.0518 24.0833L20.6807 25.1954C20.6143 25.392 20.5959 25.6016 20.6272 25.8066C20.6586 26.0117 20.7386 26.2063 20.8606 26.3741C21.44 27.1759 22.8496 26.962 23.1613 26.0228L23.8087 24.0833H21.0518Z" fill="black"/>
<path d="M17.6716 28.3337C17.2396 28.336 16.8134 28.2345 16.4288 28.0377C16.0442 27.841 15.7125 27.5548 15.4616 27.2032C15.2071 26.8539 15.0402 26.4486 14.9749 26.0213C14.9095 25.5941 14.9477 25.1575 15.0862 24.7481L15.6189 23.1515C15.6663 23.0105 15.7567 22.8879 15.8774 22.801C15.9981 22.7141 16.143 22.6672 16.2918 22.667H20.5418C20.6541 22.6668 20.7648 22.6933 20.8648 22.7444C20.9648 22.7954 21.0512 22.8696 21.1168 22.9607C21.1824 23.0518 21.2254 23.1573 21.2422 23.2683C21.259 23.3793 21.2491 23.4927 21.2133 23.5992L20.2556 26.4707C20.0758 27.0137 19.7292 27.4861 19.2652 27.8206C18.8013 28.1551 18.2436 28.3346 17.6716 28.3337ZM16.8018 24.0837L16.4306 25.1957C16.3642 25.3923 16.3459 25.6019 16.3772 25.807C16.4085 26.012 16.4885 26.2066 16.6105 26.3744C17.1899 27.1762 18.5995 26.9623 18.9112 26.0231L19.5586 24.0837H16.8018Z" fill="black"/>
<path d="M13.4216 28.333C12.039 28.333 10.8759 27.2988 10.7144 25.9261C10.6928 25.7395 10.7459 25.5519 10.8622 25.4043C10.9784 25.2567 11.1484 25.1611 11.3349 25.1384C11.521 25.1187 11.7074 25.1726 11.8543 25.2886C12.0013 25.4045 12.097 25.5733 12.1211 25.7589C12.1563 26.0539 12.2908 26.3281 12.5024 26.5366C12.7141 26.745 12.9904 26.8753 13.2858 26.9059C13.5813 26.9366 13.8784 26.8658 14.1284 26.7053C14.3783 26.5447 14.5662 26.3039 14.6612 26.0224L15.6189 23.1508C15.6484 23.0627 15.6949 22.9811 15.7559 22.911C15.8169 22.8408 15.8911 22.7833 15.9743 22.7418C16.0575 22.7003 16.1481 22.6756 16.2409 22.6691C16.3336 22.6626 16.4267 22.6744 16.5149 22.7039C16.6031 22.7334 16.6846 22.7799 16.7548 22.8409C16.825 22.9019 16.8825 22.9761 16.924 23.0593C16.9655 23.1425 16.9902 23.2331 16.9967 23.3259C17.0032 23.4186 16.9914 23.5117 16.9619 23.5999L16.0042 26.4715C15.8246 27.0142 15.4782 27.4864 15.0145 27.8206C14.5507 28.1549 13.9933 28.3342 13.4216 28.333ZM0.708456 12.7497C0.580329 12.7496 0.45462 12.7148 0.344717 12.6489C0.234814 12.5831 0.144832 12.4886 0.0843565 12.3757C0.0238807 12.2627 -0.00482473 12.1355 0.00129753 12.0075C0.00741979 11.8795 0.0481405 11.7556 0.119123 11.6489L0.595123 10.9349C1.38389 9.74907 2.45378 8.77678 3.70946 8.1047C4.96513 7.43262 6.36757 7.08163 7.79179 7.08301C7.97965 7.08301 8.15982 7.15764 8.29266 7.29048C8.4255 7.42332 8.50012 7.60348 8.50012 7.79135C8.50012 7.97921 8.4255 8.15937 8.29266 8.29221C8.15982 8.42505 7.97965 8.49968 7.79179 8.49968C5.36787 8.49968 3.11821 9.70384 1.77379 11.7198L1.29779 12.4338C1.23335 12.5311 1.14578 12.6108 1.04293 12.666C0.940075 12.7211 0.825153 12.7499 0.708456 12.7497ZM20.5418 18.4163C18.5896 18.4163 17.0001 16.8283 17.0001 14.8747C17.0001 12.9211 18.5896 11.333 20.5418 11.333C22.494 11.333 24.0835 12.9211 24.0835 14.8747C24.0835 16.8283 22.494 18.4163 20.5418 18.4163ZM20.5418 12.7497C19.3702 12.7497 18.4168 13.7031 18.4168 14.8747C18.4168 16.0463 19.3702 16.9997 20.5418 16.9997C21.7134 16.9997 22.6668 16.0463 22.6668 14.8747C22.6668 13.7031 21.7134 12.7497 20.5418 12.7497ZM13.4585 15.583H12.0418C11.8539 15.583 11.6738 15.5084 11.5409 15.3755C11.4081 15.2427 11.3335 15.0625 11.3335 14.8747C11.3335 14.6868 11.4081 14.5066 11.5409 14.3738C11.6738 14.241 11.8539 14.1663 12.0418 14.1663H13.4585C13.6463 14.1663 13.8265 14.241 13.9593 14.3738C14.0922 14.5066 14.1668 14.6868 14.1668 14.8747C14.1668 15.0625 14.0922 15.2427 13.9593 15.3755C13.8265 15.5084 13.6463 15.583 13.4585 15.583ZM29.0418 15.583H27.6251C27.4373 15.583 27.2571 15.5084 27.1243 15.3755C26.9914 15.2427 26.9168 15.0625 26.9168 14.8747C26.9168 14.6868 26.9914 14.5066 27.1243 14.3738C27.2571 14.241 27.4373 14.1663 27.6251 14.1663H29.0418C29.2297 14.1663 29.4098 14.241 29.5427 14.3738C29.6755 14.5066 29.7501 14.6868 29.7501 14.8747C29.7501 15.0625 29.6755 15.2427 29.5427 15.3755C29.4098 15.5084 29.2297 15.583 29.0418 15.583Z" fill="black"/>
</g>
<defs>
<clipPath id="clip0_8_1310">
<rect width="34" height="34" fill="white"/>
</clipPath>
</defs>
</svg>
