<svg width="32" height="33" viewBox="0 0 32 33" fill="none" xmlns="http://www.w3.org/2000/svg">
<path d="M13.3332 4.1377C18.6719 4.1377 22.9998 8.46561 22.9998 13.8044C22.9998 16.1135 22.1902 18.2336 20.8392 19.8961L27.3736 26.4306C27.7641 26.8211 27.7641 27.4543 27.3736 27.8448C27.0186 28.1998 26.463 28.2321 26.0716 27.9416L25.9594 27.8448L19.4249 21.3104C17.7624 22.6614 15.6423 23.471 13.3332 23.471C7.99442 23.471 3.6665 19.1431 3.6665 13.8044C3.6665 8.46561 7.99442 4.1377 13.3332 4.1377ZM13.3332 6.1377C9.09899 6.1377 5.6665 9.57018 5.6665 13.8044C5.6665 18.0385 9.09899 21.471 13.3332 21.471C17.5674 21.471 20.9998 18.0385 20.9998 13.8044C20.9998 9.57018 17.5674 6.1377 13.3332 6.1377Z" fill="#0D0D0D"/>
</svg>
