<svg width="474" height="20" viewBox="0 0 474 20" fill="none" xmlns="http://www.w3.org/2000/svg">
<path d="M1.40909 4.33434H3.09091L7.04545 13.9934H7.18182L11.1364 4.33434H12.8182V15.9707H11.5V7.12979H11.3864L7.75 15.9707H6.47727L2.84091 7.12979H2.72727V15.9707H1.40909V4.33434ZM19.1207 16.1525C18.2798 16.1525 17.5545 15.9669 16.9446 15.5957C16.3385 15.2207 15.8707 14.698 15.5412 14.0275C15.2154 13.3533 15.0526 12.5692 15.0526 11.6752C15.0526 10.7813 15.2154 9.99343 15.5412 9.31161C15.8707 8.62601 16.3291 8.09192 16.9162 7.70934C17.5071 7.32298 18.1965 7.12979 18.9844 7.12979C19.4389 7.12979 19.8878 7.20555 20.331 7.35707C20.7741 7.50858 21.1776 7.75479 21.5412 8.0957C21.9048 8.43282 22.1946 8.87979 22.4105 9.43661C22.6264 9.99343 22.7344 10.679 22.7344 11.4934V12.0616H16.0071V10.9025H21.3707C21.3707 10.4101 21.2723 9.9707 21.0753 9.58434C20.8821 9.19798 20.6056 8.89305 20.2457 8.66957C19.8897 8.44608 19.4692 8.33434 18.9844 8.33434C18.4503 8.33434 17.9882 8.46691 17.598 8.73207C17.2116 8.99343 16.9143 9.33434 16.706 9.75479C16.4976 10.1752 16.3935 10.626 16.3935 11.1071V11.8798C16.3935 12.5389 16.5071 13.0976 16.7344 13.5559C16.9654 14.0105 17.2855 14.3571 17.6946 14.5957C18.1037 14.8306 18.5791 14.948 19.1207 14.948C19.473 14.948 19.7912 14.8987 20.0753 14.8002C20.3632 14.698 20.6113 14.5465 20.8196 14.3457C21.0279 14.1412 21.1889 13.8874 21.3026 13.5843L22.598 13.948C22.4616 14.3874 22.2325 14.7737 21.9105 15.1071C21.5885 15.4366 21.1908 15.6942 20.7173 15.8798C20.2438 16.0616 19.7116 16.1525 19.1207 16.1525ZM26.1151 10.7207V15.9707H24.7741V7.24343H26.0696V8.60707H26.1832C26.3878 8.16388 26.6984 7.80782 27.1151 7.53889C27.5317 7.26616 28.0696 7.12979 28.7287 7.12979C29.3196 7.12979 29.8366 7.25101 30.2798 7.49343C30.723 7.73207 31.0677 8.0957 31.3139 8.58434C31.5601 9.06919 31.6832 9.68282 31.6832 10.4252V15.9707H30.3423V10.5162C30.3423 9.83055 30.1643 9.29646 29.8082 8.91388C29.4522 8.52752 28.9635 8.33434 28.3423 8.33434C27.9143 8.33434 27.5317 8.42714 27.1946 8.61275C26.8613 8.79835 26.598 9.06919 26.4048 9.42525C26.2116 9.78131 26.1151 10.2131 26.1151 10.7207Z" fill="#0D0D0D"/>
<path d="M68.5227 15.9707L65.3409 4.33434H66.7727L69.2045 13.8116H69.3182L71.7955 4.33434H73.3864L75.8636 13.8116H75.9773L78.4091 4.33434H79.8409L76.6591 15.9707H75.2045L72.6364 6.69798H72.5455L69.9773 15.9707H68.5227ZM84.1477 16.1525C83.3598 16.1525 82.6686 15.965 82.0739 15.59C81.483 15.215 81.0208 14.6904 80.6875 14.0162C80.358 13.3419 80.1932 12.554 80.1932 11.6525C80.1932 10.7434 80.358 9.94987 80.6875 9.27184C81.0208 8.59381 81.483 8.06729 82.0739 7.69229C82.6686 7.31729 83.3598 7.12979 84.1477 7.12979C84.9356 7.12979 85.625 7.31729 86.2159 7.69229C86.8106 8.06729 87.2727 8.59381 87.6023 9.27184C87.9356 9.94987 88.1023 10.7434 88.1023 11.6525C88.1023 12.554 87.9356 13.3419 87.6023 14.0162C87.2727 14.6904 86.8106 15.215 86.2159 15.59C85.625 15.965 84.9356 16.1525 84.1477 16.1525ZM84.1477 14.948C84.7462 14.948 85.2386 14.7946 85.625 14.4877C86.0114 14.1809 86.2973 13.7775 86.483 13.2775C86.6686 12.7775 86.7614 12.2359 86.7614 11.6525C86.7614 11.0692 86.6686 10.5256 86.483 10.0218C86.2973 9.51805 86.0114 9.11085 85.625 8.80025C85.2386 8.48964 84.7462 8.33434 84.1477 8.33434C83.5492 8.33434 83.0568 8.48964 82.6705 8.80025C82.2841 9.11085 81.9981 9.51805 81.8125 10.0218C81.6269 10.5256 81.5341 11.0692 81.5341 11.6525C81.5341 12.2359 81.6269 12.7775 81.8125 13.2775C81.9981 13.7775 82.2841 14.1809 82.6705 14.4877C83.0568 14.7946 83.5492 14.948 84.1477 14.948ZM90.1491 15.9707V7.24343H91.4446V8.60707H91.5582C91.7401 8.14116 92.0336 7.77942 92.4389 7.52184C92.8442 7.26048 93.331 7.12979 93.8991 7.12979C94.4749 7.12979 94.9541 7.26048 95.3366 7.52184C95.723 7.77942 96.0241 8.14116 96.2401 8.60707H96.331C96.5545 8.15631 96.8897 7.79835 97.3366 7.5332C97.7836 7.26426 98.3196 7.12979 98.9446 7.12979C99.7249 7.12979 100.363 7.37411 100.859 7.86275C101.356 8.3476 101.604 9.10328 101.604 10.1298V15.9707H100.263V10.1298C100.263 9.48585 100.087 9.02563 99.7344 8.74911C99.3821 8.4726 98.9673 8.33434 98.4901 8.33434C97.8764 8.33434 97.401 8.51995 97.0639 8.89116C96.7268 9.25858 96.5582 9.72449 96.5582 10.2889V15.9707H95.1946V9.99343C95.1946 9.49722 95.0336 9.0976 94.7116 8.79457C94.3897 8.48775 93.9749 8.33434 93.4673 8.33434C93.1188 8.33434 92.7931 8.42714 92.4901 8.61275C92.1908 8.79835 91.9484 9.05593 91.7628 9.38548C91.581 9.71123 91.4901 10.0881 91.4901 10.5162V15.9707H90.1491ZM107.714 16.1525C106.874 16.1525 106.148 15.9669 105.538 15.5957C104.932 15.2207 104.464 14.698 104.135 14.0275C103.809 13.3533 103.646 12.5692 103.646 11.6752C103.646 10.7813 103.809 9.99343 104.135 9.31161C104.464 8.62601 104.923 8.09192 105.51 7.70934C106.101 7.32298 106.79 7.12979 107.578 7.12979C108.033 7.12979 108.482 7.20555 108.925 7.35707C109.368 7.50858 109.771 7.75479 110.135 8.0957C110.499 8.43282 110.788 8.87979 111.004 9.43661C111.22 9.99343 111.328 10.679 111.328 11.4934V12.0616H104.601V10.9025H109.964C109.964 10.4101 109.866 9.9707 109.669 9.58434C109.476 9.19798 109.199 8.89305 108.839 8.66957C108.483 8.44608 108.063 8.33434 107.578 8.33434C107.044 8.33434 106.582 8.46691 106.192 8.73207C105.805 8.99343 105.508 9.33434 105.3 9.75479C105.091 10.1752 104.987 10.626 104.987 11.1071V11.8798C104.987 12.5389 105.101 13.0976 105.328 13.5559C105.559 14.0105 105.879 14.3571 106.288 14.5957C106.697 14.8306 107.173 14.948 107.714 14.948C108.067 14.948 108.385 14.8987 108.669 14.8002C108.957 14.698 109.205 14.5465 109.413 14.3457C109.622 14.1412 109.783 13.8874 109.896 13.5843L111.192 13.948C111.055 14.3874 110.826 14.7737 110.504 15.1071C110.182 15.4366 109.785 15.6942 109.311 15.8798C108.838 16.0616 108.305 16.1525 107.714 16.1525ZM114.709 10.7207V15.9707H113.368V7.24343H114.663V8.60707H114.777C114.982 8.16388 115.292 7.80782 115.709 7.53889C116.125 7.26616 116.663 7.12979 117.322 7.12979C117.913 7.12979 118.43 7.25101 118.874 7.49343C119.317 7.73207 119.661 8.0957 119.908 8.58434C120.154 9.06919 120.277 9.68282 120.277 10.4252V15.9707H118.936V10.5162C118.936 9.83055 118.758 9.29646 118.402 8.91388C118.046 8.52752 117.557 8.33434 116.936 8.33434C116.508 8.33434 116.125 8.42714 115.788 8.61275C115.455 8.79835 115.192 9.06919 114.999 9.42525C114.805 9.78131 114.709 10.2131 114.709 10.7207Z" fill="#0D0D0D"/>
<path d="M155.409 15.9707V4.33434H162.386V5.58434H156.818V9.51616H161.864V10.7662H156.818V15.9707H155.409ZM167.636 16.1525C166.795 16.1525 166.07 15.9669 165.46 15.5957C164.854 15.2207 164.386 14.698 164.057 14.0275C163.731 13.3533 163.568 12.5692 163.568 11.6752C163.568 10.7813 163.731 9.99343 164.057 9.31161C164.386 8.62601 164.845 8.09192 165.432 7.70934C166.023 7.32298 166.712 7.12979 167.5 7.12979C167.955 7.12979 168.403 7.20555 168.847 7.35707C169.29 7.50858 169.693 7.75479 170.057 8.0957C170.42 8.43282 170.71 8.87979 170.926 9.43661C171.142 9.99343 171.25 10.679 171.25 11.4934V12.0616H164.523V10.9025H169.886C169.886 10.4101 169.788 9.9707 169.591 9.58434C169.398 9.19798 169.121 8.89305 168.761 8.66957C168.405 8.44608 167.985 8.33434 167.5 8.33434C166.966 8.33434 166.504 8.46691 166.114 8.73207C165.727 8.99343 165.43 9.33434 165.222 9.75479C165.013 10.1752 164.909 10.626 164.909 11.1071V11.8798C164.909 12.5389 165.023 13.0976 165.25 13.5559C165.481 14.0105 165.801 14.3571 166.21 14.5957C166.619 14.8306 167.095 14.948 167.636 14.948C167.989 14.948 168.307 14.8987 168.591 14.8002C168.879 14.698 169.127 14.5465 169.335 14.3457C169.544 14.1412 169.705 13.8874 169.818 13.5843L171.114 13.948C170.977 14.3874 170.748 14.7737 170.426 15.1071C170.104 15.4366 169.706 15.6942 169.233 15.8798C168.759 16.0616 168.227 16.1525 167.636 16.1525ZM175.858 16.1752C175.305 16.1752 174.803 16.0711 174.352 15.8627C173.902 15.6506 173.544 15.3457 173.278 14.948C173.013 14.5465 172.881 14.0616 172.881 13.4934C172.881 12.9934 172.979 12.5881 173.176 12.2775C173.373 11.9631 173.636 11.7169 173.966 11.5389C174.295 11.3609 174.659 11.2283 175.057 11.1412C175.458 11.0502 175.862 10.9783 176.267 10.9252C176.797 10.8571 177.227 10.8059 177.557 10.7718C177.89 10.734 178.133 10.6715 178.284 10.5843C178.439 10.4972 178.517 10.3457 178.517 10.1298V10.0843C178.517 9.52373 178.364 9.08813 178.057 8.77752C177.754 8.46692 177.294 8.31161 176.676 8.31161C176.036 8.31161 175.534 8.45176 175.17 8.73207C174.807 9.01237 174.551 9.31161 174.403 9.62979L173.131 9.17525C173.358 8.64495 173.661 8.23207 174.04 7.93661C174.422 7.63737 174.839 7.42904 175.29 7.31161C175.744 7.1904 176.191 7.12979 176.631 7.12979C176.911 7.12979 177.233 7.16388 177.597 7.23207C177.964 7.29646 178.318 7.43093 178.659 7.63548C179.004 7.84002 179.29 8.14873 179.517 8.56161C179.744 8.97449 179.858 9.52752 179.858 10.2207V15.9707H178.517V14.7889H178.449C178.358 14.9783 178.206 15.1809 177.994 15.3968C177.782 15.6127 177.5 15.7965 177.148 15.948C176.795 16.0995 176.366 16.1752 175.858 16.1752ZM176.062 14.9707C176.593 14.9707 177.04 14.8665 177.403 14.6582C177.771 14.4499 178.047 14.1809 178.233 13.8514C178.422 13.5218 178.517 13.1752 178.517 12.8116V11.5843C178.46 11.6525 178.335 11.715 178.142 11.7718C177.953 11.8249 177.733 11.8722 177.483 11.9139C177.237 11.9518 176.996 11.9859 176.761 12.0162C176.53 12.0427 176.343 12.0654 176.199 12.0843C175.85 12.1298 175.525 12.2037 175.222 12.3059C174.922 12.4044 174.68 12.554 174.494 12.7548C174.313 12.9518 174.222 13.2207 174.222 13.5616C174.222 14.0275 174.394 14.3798 174.739 14.6184C175.087 14.8533 175.528 14.9707 176.062 14.9707ZM186.101 7.24343V8.37979H181.578V7.24343H186.101ZM182.896 5.15252H184.237V13.4707C184.237 13.8495 184.292 14.1336 184.402 14.323C184.516 14.5086 184.66 14.6336 184.834 14.698C185.012 14.7586 185.199 14.7889 185.396 14.7889C185.544 14.7889 185.665 14.7813 185.76 14.7662C185.855 14.7472 185.93 14.7321 185.987 14.7207L186.26 15.9252C186.169 15.9593 186.042 15.9934 185.879 16.0275C185.716 16.0654 185.51 16.0843 185.26 16.0843C184.881 16.0843 184.51 16.0029 184.146 15.84C183.786 15.6771 183.487 15.429 183.249 15.0957C183.014 14.7624 182.896 14.3419 182.896 13.8343V5.15252ZM193.618 12.4025V7.24343H194.959V15.9707H193.618V14.4934H193.527C193.322 14.9366 193.004 15.3135 192.572 15.6241C192.141 15.9309 191.595 16.0843 190.936 16.0843C190.391 16.0843 189.906 15.965 189.482 15.7264C189.057 15.484 188.724 15.1203 188.482 14.6355C188.239 14.1468 188.118 13.5313 188.118 12.7889V7.24343H189.459V12.698C189.459 13.3343 189.637 13.8419 189.993 14.2207C190.353 14.5995 190.811 14.7889 191.368 14.7889C191.701 14.7889 192.04 14.7037 192.385 14.5332C192.733 14.3627 193.025 14.1014 193.26 13.7491C193.499 13.3968 193.618 12.948 193.618 12.4025ZM197.415 15.9707V7.24343H198.71V8.56161H198.801C198.96 8.12979 199.248 7.77942 199.665 7.51048C200.081 7.24154 200.551 7.10707 201.074 7.10707C201.172 7.10707 201.295 7.10896 201.443 7.11275C201.591 7.11654 201.703 7.12222 201.778 7.12979V8.49343C201.733 8.48207 201.629 8.46502 201.466 8.44229C201.307 8.41578 201.138 8.40252 200.96 8.40252C200.536 8.40252 200.157 8.49154 199.824 8.66957C199.494 8.84381 199.233 9.08623 199.04 9.39684C198.85 9.70366 198.756 10.054 198.756 10.448V15.9707H197.415ZM206.761 16.1525C205.92 16.1525 205.195 15.9669 204.585 15.5957C203.979 15.2207 203.511 14.698 203.182 14.0275C202.856 13.3533 202.693 12.5692 202.693 11.6752C202.693 10.7813 202.856 9.99343 203.182 9.31161C203.511 8.62601 203.97 8.09192 204.557 7.70934C205.148 7.32298 205.837 7.12979 206.625 7.12979C207.08 7.12979 207.528 7.20555 207.972 7.35707C208.415 7.50858 208.818 7.75479 209.182 8.0957C209.545 8.43282 209.835 8.87979 210.051 9.43661C210.267 9.99343 210.375 10.679 210.375 11.4934V12.0616H203.648V10.9025H209.011C209.011 10.4101 208.913 9.9707 208.716 9.58434C208.523 9.19798 208.246 8.89305 207.886 8.66957C207.53 8.44608 207.11 8.33434 206.625 8.33434C206.091 8.33434 205.629 8.46691 205.239 8.73207C204.852 8.99343 204.555 9.33434 204.347 9.75479C204.138 10.1752 204.034 10.626 204.034 11.1071V11.8798C204.034 12.5389 204.148 13.0976 204.375 13.5559C204.606 14.0105 204.926 14.3571 205.335 14.5957C205.744 14.8306 206.22 14.948 206.761 14.948C207.114 14.948 207.432 14.8987 207.716 14.8002C208.004 14.698 208.252 14.5465 208.46 14.3457C208.669 14.1412 208.83 13.8874 208.943 13.5843L210.239 13.948C210.102 14.3874 209.873 14.7737 209.551 15.1071C209.229 15.4366 208.831 15.6942 208.358 15.8798C207.884 16.0616 207.352 16.1525 206.761 16.1525Z" fill="#0D0D0D"/>
<path d="M219 9.9707L223.5 13.9707L228 9.9707" stroke="#9D9D9D" stroke-width="1.5" stroke-linecap="round" stroke-linejoin="round"/>
<path d="M261.409 15.9707V4.33434H265.477C266.288 4.33434 266.956 4.47449 267.483 4.75479C268.009 5.03131 268.402 5.40441 268.659 5.87411C268.917 6.34002 269.045 6.85707 269.045 7.42525C269.045 7.92525 268.956 8.33813 268.778 8.66388C268.604 8.98964 268.373 9.24722 268.085 9.43661C267.801 9.62601 267.492 9.76616 267.159 9.85707V9.9707C267.515 9.99343 267.873 10.1184 268.233 10.3457C268.593 10.573 268.894 10.8987 269.136 11.323C269.379 11.7472 269.5 12.2662 269.5 12.8798C269.5 13.4631 269.367 13.9877 269.102 14.4537C268.837 14.9196 268.419 15.2889 267.847 15.5616C267.275 15.8343 266.53 15.9707 265.614 15.9707H261.409ZM262.818 14.7207H265.614C266.534 14.7207 267.188 14.5427 267.574 14.1866C267.964 13.8268 268.159 13.3912 268.159 12.8798C268.159 12.4859 268.059 12.1222 267.858 11.7889C267.657 11.4518 267.371 11.1828 267 10.9821C266.629 10.7775 266.189 10.6752 265.682 10.6752H262.818V14.7207ZM262.818 9.44798H265.432C265.856 9.44798 266.239 9.36464 266.58 9.19798C266.924 9.03131 267.197 8.79646 267.398 8.49343C267.602 8.1904 267.705 7.83434 267.705 7.42525C267.705 6.91388 267.527 6.48017 267.17 6.12411C266.814 5.76426 266.25 5.58434 265.477 5.58434H262.818V9.44798ZM272.974 4.33434V15.9707H271.634V4.33434H272.974ZM278.976 16.1525C278.188 16.1525 277.497 15.965 276.902 15.59C276.311 15.215 275.849 14.6904 275.516 14.0162C275.186 13.3419 275.021 12.554 275.021 11.6525C275.021 10.7434 275.186 9.94987 275.516 9.27184C275.849 8.59381 276.311 8.06729 276.902 7.69229C277.497 7.31729 278.188 7.12979 278.976 7.12979C279.764 7.12979 280.453 7.31729 281.044 7.69229C281.639 8.06729 282.101 8.59381 282.43 9.27184C282.764 9.94987 282.93 10.7434 282.93 11.6525C282.93 12.554 282.764 13.3419 282.43 14.0162C282.101 14.6904 281.639 15.215 281.044 15.59C280.453 15.965 279.764 16.1525 278.976 16.1525ZM278.976 14.948C279.574 14.948 280.067 14.7946 280.453 14.4877C280.839 14.1809 281.125 13.7775 281.311 13.2775C281.497 12.7775 281.589 12.2359 281.589 11.6525C281.589 11.0692 281.497 10.5256 281.311 10.0218C281.125 9.51805 280.839 9.11085 280.453 8.80025C280.067 8.48964 279.574 8.33434 278.976 8.33434C278.377 8.33434 277.885 8.48964 277.499 8.80025C277.112 9.11085 276.826 9.51805 276.641 10.0218C276.455 10.5256 276.362 11.0692 276.362 11.6525C276.362 12.2359 276.455 12.7775 276.641 13.2775C276.826 13.7775 277.112 14.1809 277.499 14.4877C277.885 14.7946 278.377 14.948 278.976 14.948ZM288.5 19.4252C287.852 19.4252 287.295 19.3419 286.83 19.1752C286.364 19.0124 285.975 18.7965 285.665 18.5275C285.358 18.2624 285.114 17.9783 284.932 17.6752L286 16.9252C286.121 17.0843 286.275 17.2662 286.46 17.4707C286.646 17.679 286.9 17.859 287.222 18.0105C287.547 18.1658 287.973 18.2434 288.5 18.2434C289.205 18.2434 289.786 18.073 290.244 17.7321C290.703 17.3912 290.932 16.8571 290.932 16.1298V14.3571H290.818C290.72 14.5162 290.58 14.7131 290.398 14.948C290.22 15.179 289.962 15.3855 289.625 15.5673C289.292 15.7453 288.841 15.8343 288.273 15.8343C287.568 15.8343 286.936 15.6677 286.375 15.3343C285.818 15.001 285.377 14.5162 285.051 13.8798C284.729 13.2434 284.568 12.4707 284.568 11.5616C284.568 10.6677 284.725 9.88926 285.04 9.22638C285.354 8.55972 285.792 8.04457 286.352 7.68093C286.913 7.31351 287.561 7.12979 288.295 7.12979C288.864 7.12979 289.314 7.22449 289.648 7.41389C289.985 7.59949 290.242 7.81161 290.42 8.05025C290.602 8.2851 290.742 8.47828 290.841 8.62979H290.977V7.24343H292.273V16.2207C292.273 16.9707 292.102 17.5806 291.761 18.0502C291.424 18.5237 290.97 18.8703 290.398 19.09C289.83 19.3135 289.197 19.4252 288.5 19.4252ZM288.455 14.6298C288.992 14.6298 289.447 14.5067 289.818 14.2605C290.189 14.0143 290.472 13.6601 290.665 13.198C290.858 12.7359 290.955 12.1828 290.955 11.5389C290.955 10.9101 290.86 10.3552 290.67 9.87411C290.481 9.39305 290.201 9.01616 289.83 8.74343C289.458 8.4707 289 8.33434 288.455 8.33434C287.886 8.33434 287.413 8.47828 287.034 8.76616C286.659 9.05404 286.377 9.4404 286.188 9.92525C286.002 10.4101 285.909 10.948 285.909 11.5389C285.909 12.1449 286.004 12.6809 286.193 13.1468C286.386 13.609 286.67 13.9726 287.045 14.2377C287.424 14.4991 287.894 14.6298 288.455 14.6298Z" fill="#0D0D0D"/>
<path d="M327.409 15.9707V4.33434H334.386V5.58434H328.818V9.51616H333.864V10.7662H328.818V15.9707H327.409ZM335.824 15.9707H334.347L338.619 4.33434H340.074L344.347 15.9707H342.869L339.392 6.17525H339.301L335.824 15.9707ZM336.369 11.4252H342.324V12.6752H336.369V11.4252ZM349.839 12.3343H351.385L352.68 14.0389L353.021 14.4934L354.953 17.0616H353.408L352.135 15.3571L351.817 14.9252L349.839 12.3343ZM355.43 10.1525C355.43 11.3798 355.209 12.4404 354.766 13.3343C354.322 14.2283 353.714 14.9177 352.942 15.4025C352.169 15.8874 351.286 16.1298 350.294 16.1298C349.302 16.1298 348.419 15.8874 347.646 15.4025C346.874 14.9177 346.266 14.2283 345.822 13.3343C345.379 12.4404 345.158 11.3798 345.158 10.1525C345.158 8.92525 345.379 7.86464 345.822 6.9707C346.266 6.07676 346.874 5.38737 347.646 4.90252C348.419 4.41767 349.302 4.17525 350.294 4.17525C351.286 4.17525 352.169 4.41767 352.942 4.90252C353.714 5.38737 354.322 6.07676 354.766 6.9707C355.209 7.86464 355.43 8.92525 355.43 10.1525ZM354.067 10.1525C354.067 9.14495 353.898 8.29457 353.561 7.60139C353.228 6.9082 352.775 6.38358 352.203 6.02752C351.635 5.67146 350.999 5.49343 350.294 5.49343C349.589 5.49343 348.951 5.67146 348.379 6.02752C347.811 6.38358 347.358 6.9082 347.021 7.60139C346.688 8.29457 346.521 9.14495 346.521 10.1525C346.521 11.1601 346.688 12.0105 347.021 12.7037C347.358 13.3968 347.811 13.9215 348.379 14.2775C348.951 14.6336 349.589 14.8116 350.294 14.8116C350.999 14.8116 351.635 14.6336 352.203 14.2775C352.775 13.9215 353.228 13.3968 353.561 12.7037C353.898 12.0105 354.067 11.1601 354.067 10.1525Z" fill="#0D0D0D"/>
<path d="M399.773 7.9707H398.364C398.28 7.5654 398.134 7.20934 397.926 6.90252C397.722 6.5957 397.472 6.33813 397.176 6.12979C396.884 5.91767 396.561 5.75858 396.205 5.65252C395.848 5.54646 395.477 5.49343 395.091 5.49343C394.386 5.49343 393.748 5.67146 393.176 6.02752C392.608 6.38358 392.155 6.9082 391.818 7.60139C391.485 8.29457 391.318 9.14495 391.318 10.1525C391.318 11.1601 391.485 12.0105 391.818 12.7037C392.155 13.3968 392.608 13.9215 393.176 14.2775C393.748 14.6336 394.386 14.8116 395.091 14.8116C395.477 14.8116 395.848 14.7586 396.205 14.6525C396.561 14.5465 396.884 14.3893 397.176 14.1809C397.472 13.9688 397.722 13.7093 397.926 13.4025C398.134 13.0919 398.28 12.7359 398.364 12.3343H399.773C399.667 12.929 399.473 13.4612 399.193 13.9309C398.913 14.4006 398.564 14.8002 398.148 15.1298C397.731 15.4556 397.263 15.7037 396.744 15.8741C396.229 16.0446 395.678 16.1298 395.091 16.1298C394.098 16.1298 393.216 15.8874 392.443 15.4025C391.67 14.9177 391.063 14.2283 390.619 13.3343C390.176 12.4404 389.955 11.3798 389.955 10.1525C389.955 8.92525 390.176 7.86464 390.619 6.9707C391.063 6.07676 391.67 5.38737 392.443 4.90252C393.216 4.41767 394.098 4.17525 395.091 4.17525C395.678 4.17525 396.229 4.26048 396.744 4.43093C397.263 4.60138 397.731 4.85138 398.148 5.18093C398.564 5.50669 398.913 5.90441 399.193 6.37411C399.473 6.84002 399.667 7.37222 399.773 7.9707ZM405.413 16.1525C404.625 16.1525 403.934 15.965 403.339 15.59C402.749 15.215 402.286 14.6904 401.953 14.0162C401.624 13.3419 401.459 12.554 401.459 11.6525C401.459 10.7434 401.624 9.94987 401.953 9.27184C402.286 8.59381 402.749 8.06729 403.339 7.69229C403.934 7.31729 404.625 7.12979 405.413 7.12979C406.201 7.12979 406.891 7.31729 407.482 7.69229C408.076 8.06729 408.538 8.59381 408.868 9.27184C409.201 9.94987 409.368 10.7434 409.368 11.6525C409.368 12.554 409.201 13.3419 408.868 14.0162C408.538 14.6904 408.076 15.215 407.482 15.59C406.891 15.965 406.201 16.1525 405.413 16.1525ZM405.413 14.948C406.012 14.948 406.504 14.7946 406.891 14.4877C407.277 14.1809 407.563 13.7775 407.749 13.2775C407.934 12.7775 408.027 12.2359 408.027 11.6525C408.027 11.0692 407.934 10.5256 407.749 10.0218C407.563 9.51805 407.277 9.11085 406.891 8.80025C406.504 8.48964 406.012 8.33434 405.413 8.33434C404.815 8.33434 404.322 8.48964 403.936 8.80025C403.55 9.11085 403.264 9.51805 403.078 10.0218C402.893 10.5256 402.8 11.0692 402.8 11.6525C402.8 12.2359 402.893 12.7775 403.078 13.2775C403.264 13.7775 403.55 14.1809 403.936 14.4877C404.322 14.7946 404.815 14.948 405.413 14.948ZM412.756 10.7207V15.9707H411.415V7.24343H412.71V8.60707H412.824C413.028 8.16388 413.339 7.80782 413.756 7.53889C414.172 7.26616 414.71 7.12979 415.369 7.12979C415.96 7.12979 416.477 7.25101 416.92 7.49343C417.364 7.73207 417.708 8.0957 417.955 8.58434C418.201 9.06919 418.324 9.68282 418.324 10.4252V15.9707H416.983V10.5162C416.983 9.83055 416.805 9.29646 416.449 8.91388C416.093 8.52752 415.604 8.33434 414.983 8.33434C414.555 8.33434 414.172 8.42714 413.835 8.61275C413.502 8.79835 413.239 9.06919 413.045 9.42525C412.852 9.78131 412.756 10.2131 412.756 10.7207ZM424.57 7.24343V8.37979H420.047V7.24343H424.57ZM421.365 5.15252H422.706V13.4707C422.706 13.8495 422.761 14.1336 422.871 14.323C422.984 14.5086 423.128 14.6336 423.303 14.698C423.481 14.7586 423.668 14.7889 423.865 14.7889C424.013 14.7889 424.134 14.7813 424.229 14.7662C424.323 14.7472 424.399 14.7321 424.456 14.7207L424.729 15.9252C424.638 15.9593 424.511 15.9934 424.348 16.0275C424.185 16.0654 423.979 16.0843 423.729 16.0843C423.35 16.0843 422.979 16.0029 422.615 15.84C422.255 15.6771 421.956 15.429 421.717 15.0957C421.482 14.7624 421.365 14.3419 421.365 13.8343V5.15252ZM429.155 16.1752C428.602 16.1752 428.1 16.0711 427.649 15.8627C427.198 15.6506 426.84 15.3457 426.575 14.948C426.31 14.5465 426.178 14.0616 426.178 13.4934C426.178 12.9934 426.276 12.5881 426.473 12.2775C426.67 11.9631 426.933 11.7169 427.263 11.5389C427.592 11.3609 427.956 11.2283 428.354 11.1412C428.755 11.0502 429.159 10.9783 429.564 10.9252C430.094 10.8571 430.524 10.8059 430.854 10.7718C431.187 10.734 431.429 10.6715 431.581 10.5843C431.736 10.4972 431.814 10.3457 431.814 10.1298V10.0843C431.814 9.52373 431.661 9.08813 431.354 8.77752C431.051 8.46692 430.59 8.31161 429.973 8.31161C429.333 8.31161 428.831 8.45176 428.467 8.73207C428.104 9.01237 427.848 9.31161 427.7 9.62979L426.428 9.17525C426.655 8.64495 426.958 8.23207 427.337 7.93661C427.719 7.63737 428.136 7.42904 428.587 7.31161C429.041 7.1904 429.488 7.12979 429.928 7.12979C430.208 7.12979 430.53 7.16388 430.893 7.23207C431.261 7.29646 431.615 7.43093 431.956 7.63548C432.301 7.84002 432.587 8.14873 432.814 8.56161C433.041 8.97449 433.155 9.52752 433.155 10.2207V15.9707H431.814V14.7889H431.746C431.655 14.9783 431.503 15.1809 431.291 15.3968C431.079 15.6127 430.797 15.7965 430.445 15.948C430.092 16.0995 429.662 16.1752 429.155 16.1752ZM429.359 14.9707C429.89 14.9707 430.337 14.8665 430.7 14.6582C431.068 14.4499 431.344 14.1809 431.53 13.8514C431.719 13.5218 431.814 13.1752 431.814 12.8116V11.5843C431.757 11.6525 431.632 11.715 431.439 11.7718C431.25 11.8249 431.03 11.8722 430.78 11.9139C430.534 11.9518 430.293 11.9859 430.058 12.0162C429.827 12.0427 429.64 12.0654 429.496 12.0843C429.147 12.1298 428.821 12.2037 428.518 12.3059C428.219 12.4044 427.977 12.554 427.791 12.7548C427.609 12.9518 427.518 13.2207 427.518 13.5616C427.518 14.0275 427.691 14.3798 428.036 14.6184C428.384 14.8533 428.825 14.9707 429.359 14.9707ZM439.148 16.1525C438.33 16.1525 437.625 15.9593 437.034 15.573C436.443 15.1866 435.989 14.6544 435.67 13.9764C435.352 13.2984 435.193 12.5237 435.193 11.6525C435.193 10.7662 435.356 9.98396 435.682 9.30593C436.011 8.62411 436.47 8.09192 437.057 7.70934C437.648 7.32298 438.337 7.12979 439.125 7.12979C439.739 7.12979 440.292 7.24343 440.784 7.4707C441.277 7.69798 441.68 8.01616 441.994 8.42525C442.309 8.83434 442.504 9.31161 442.58 9.85707H441.239C441.136 9.45934 440.909 9.10707 440.557 8.80025C440.208 8.48964 439.739 8.33434 439.148 8.33434C438.625 8.33434 438.167 8.4707 437.773 8.74343C437.383 9.01237 437.078 9.39305 436.858 9.88548C436.642 10.3741 436.534 10.948 436.534 11.6071C436.534 12.2813 436.64 12.8684 436.852 13.3684C437.068 13.8684 437.371 14.2567 437.761 14.5332C438.155 14.8097 438.617 14.948 439.148 14.948C439.496 14.948 439.812 14.8874 440.097 14.7662C440.381 14.6449 440.621 14.4707 440.818 14.2434C441.015 14.0162 441.155 13.7434 441.239 13.4252H442.58C442.504 13.9404 442.316 14.4044 442.017 14.8173C441.722 15.2264 441.33 15.5521 440.841 15.7946C440.356 16.0332 439.792 16.1525 439.148 16.1525ZM448.335 7.24343V8.37979H443.812V7.24343H448.335ZM445.131 5.15252H446.472V13.4707C446.472 13.8495 446.527 14.1336 446.636 14.323C446.75 14.5086 446.894 14.6336 447.068 14.698C447.246 14.7586 447.434 14.7889 447.631 14.7889C447.778 14.7889 447.9 14.7813 447.994 14.7662C448.089 14.7472 448.165 14.7321 448.222 14.7207L448.494 15.9252C448.403 15.9593 448.277 15.9934 448.114 16.0275C447.951 16.0654 447.744 16.0843 447.494 16.0843C447.116 16.0843 446.744 16.0029 446.381 15.84C446.021 15.6771 445.722 15.429 445.483 15.0957C445.248 14.7624 445.131 14.3419 445.131 13.8343V5.15252ZM462.67 4.33434H464.08V12.0389C464.08 12.8343 463.892 13.5446 463.517 14.1696C463.146 14.7908 462.621 15.2813 461.943 15.6412C461.265 15.9972 460.47 16.1752 459.557 16.1752C458.644 16.1752 457.848 15.9972 457.17 15.6412C456.492 15.2813 455.966 14.7908 455.591 14.1696C455.22 13.5446 455.034 12.8343 455.034 12.0389V4.33434H456.443V11.9252C456.443 12.4934 456.568 12.9991 456.818 13.4423C457.068 13.8817 457.424 14.2283 457.886 14.4821C458.352 14.7321 458.909 14.8571 459.557 14.8571C460.205 14.8571 460.761 14.7321 461.227 14.4821C461.693 14.2283 462.049 13.8817 462.295 13.4423C462.545 12.9991 462.67 12.4934 462.67 11.9252V4.33434ZM472.893 9.19798L471.689 9.53888C471.613 9.33813 471.501 9.14305 471.354 8.95366C471.21 8.76048 471.013 8.60138 470.763 8.47638C470.513 8.35138 470.193 8.28888 469.803 8.28888C469.268 8.28888 468.823 8.41199 468.467 8.6582C468.115 8.90063 467.939 9.20934 467.939 9.58434C467.939 9.91767 468.06 10.1809 468.303 10.3741C468.545 10.5673 468.924 10.7283 469.439 10.8571L470.734 11.1752C471.515 11.3646 472.096 11.6544 472.479 12.0446C472.861 12.4309 473.053 12.929 473.053 13.5389C473.053 14.0389 472.909 14.4859 472.621 14.8798C472.337 15.2737 471.939 15.5843 471.428 15.8116C470.916 16.0389 470.321 16.1525 469.643 16.1525C468.753 16.1525 468.017 15.9593 467.433 15.573C466.85 15.1866 466.481 14.6222 466.325 13.8798L467.598 13.5616C467.719 14.0313 467.948 14.3836 468.286 14.6184C468.626 14.8533 469.071 14.9707 469.621 14.9707C470.246 14.9707 470.742 14.8381 471.109 14.573C471.481 14.304 471.666 13.9821 471.666 13.6071C471.666 13.304 471.56 13.0502 471.348 12.8457C471.136 12.6374 470.81 12.4821 470.371 12.3798L468.916 12.0389C468.117 11.8495 467.53 11.5559 467.155 11.1582C466.784 10.7567 466.598 10.2548 466.598 9.65252C466.598 9.1601 466.736 8.72449 467.013 8.3457C467.293 7.96692 467.674 7.66957 468.155 7.45366C468.64 7.23775 469.189 7.12979 469.803 7.12979C470.666 7.12979 471.344 7.31919 471.837 7.69798C472.333 8.07676 472.685 8.57676 472.893 9.19798Z" fill="#0D0D0D"/>
</svg>
