<svg width="34" height="34" viewBox="0 0 34 34" fill="none" xmlns="http://www.w3.org/2000/svg">
<g clip-path="url(#clip0_8_1301)">
<path d="M30.4583 31.1667H26.2083C26.0205 31.1667 25.8403 31.092 25.7075 30.9592C25.5746 30.8264 25.5 30.6462 25.5 30.4583V26.2083C25.5 26.0205 25.5746 25.8403 25.7075 25.7075C25.8403 25.5746 26.0205 25.5 26.2083 25.5C26.3962 25.5 26.5764 25.5746 26.7092 25.7075C26.842 25.8403 26.9167 26.0205 26.9167 26.2083V29.75H30.4583C30.6462 29.75 30.8264 29.8246 30.9592 29.9575C31.092 30.0903 31.1667 30.2705 31.1667 30.4583C31.1667 30.6462 31.092 30.8264 30.9592 30.9592C30.8264 31.092 30.6462 31.1667 30.4583 31.1667Z" fill="black"/>
<path d="M26.6475 30.8125C26.498 30.8126 26.3522 30.7654 26.2312 30.6777C26.1101 30.5899 26.0199 30.4661 25.9735 30.3239C25.9271 30.1818 25.9269 30.0286 25.9729 29.8863C26.0189 29.744 26.1088 29.6199 26.2296 29.5318C28.196 28.0864 29.7954 26.1993 30.899 24.0226C32.0026 21.846 32.5795 19.4405 32.5833 17C32.5833 8.40792 25.5921 1.41667 17 1.41667C8.40792 1.41667 1.41667 8.40792 1.41667 17C1.41667 17.1879 1.34204 17.368 1.2092 17.5009C1.07636 17.6337 0.896195 17.7083 0.708333 17.7083C0.520472 17.7083 0.340304 17.6337 0.207466 17.5009C0.0746278 17.368 0 17.1879 0 17C0 7.62592 7.62592 0 17 0C26.3741 0 34 7.62592 34 17C34 22.3833 31.4075 27.4961 27.064 30.6751C26.9437 30.7648 26.7976 30.813 26.6475 30.8125Z" fill="black"/>
<path d="M0.950583 20.5307C0.78415 20.5304 0.623136 20.4715 0.495896 20.3642C0.368656 20.2569 0.28335 20.1082 0.255 19.9442C0.0864167 18.9808 0 17.9906 0 17.0003C0 16.8125 0.0746278 16.6323 0.207466 16.4995C0.340304 16.3666 0.520472 16.292 0.708333 16.292C0.896195 16.292 1.07636 16.3666 1.2092 16.4995C1.34204 16.6323 1.41667 16.8125 1.41667 17.0003C1.41667 17.9098 1.496 18.8179 1.649 19.6991C1.66701 19.801 1.66246 19.9057 1.63566 20.0057C1.60886 20.1057 1.56047 20.1986 1.49388 20.2779C1.4273 20.3572 1.34415 20.4209 1.25028 20.4646C1.15641 20.5082 1.05411 20.5308 0.950583 20.5307ZM16.9802 34.0003C16.3908 34.0003 15.793 33.9692 15.2065 33.9068C15.1141 33.8971 15.0245 33.8693 14.9429 33.8249C14.8613 33.7806 14.7892 33.7206 14.7308 33.6483C14.6724 33.5761 14.6288 33.4931 14.6025 33.404C14.5762 33.3149 14.5677 33.2215 14.5775 33.1291C14.5854 33.0358 14.612 32.945 14.6558 32.8623C14.6997 32.7796 14.7598 32.7065 14.8326 32.6476C14.9054 32.5888 14.9893 32.5452 15.0794 32.5196C15.1695 32.494 15.2638 32.4869 15.3567 32.4987C15.895 32.5567 16.4758 32.6077 16.9986 32.5837C18.0356 32.5837 19.0683 32.4831 20.0685 32.2833C20.2493 32.2548 20.434 32.2973 20.5842 32.4019C20.7343 32.5066 20.8381 32.6653 20.8738 32.8447C20.9095 33.0242 20.8743 33.2106 20.7757 33.3647C20.6771 33.5189 20.5227 33.6289 20.3448 33.6717C19.2553 33.8898 18.1291 34.0003 17 34.0003H16.9802ZM11.6677 33.1078C11.5887 33.1076 11.5102 33.0947 11.4353 33.0696C9.80592 32.5041 8.27206 31.6939 6.88642 30.6669C6.73538 30.5551 6.63493 30.3879 6.60716 30.2021C6.5794 30.0163 6.6266 29.827 6.73838 29.676C6.85015 29.5249 7.01735 29.4245 7.20319 29.3967C7.38903 29.3689 7.57829 29.4161 7.72933 29.5279C9.00433 30.4728 10.4083 31.2137 11.8986 31.7308C12.0563 31.7859 12.1895 31.895 12.2745 32.0388C12.3596 32.1826 12.3911 32.3519 12.3635 32.5166C12.3358 32.6814 12.2508 32.8311 12.1235 32.9393C11.9962 33.0475 11.8347 33.1072 11.6677 33.1078ZM4.60133 28.2756C4.49902 28.2756 4.39792 28.2534 4.30499 28.2106C4.21206 28.1678 4.1295 28.1054 4.063 28.0277C2.94218 26.7167 2.02784 25.2425 1.3515 23.6558C1.27786 23.483 1.27589 23.288 1.34603 23.1137C1.41617 22.9394 1.55267 22.8001 1.7255 22.7265C1.89833 22.6529 2.09334 22.6509 2.26762 22.721C2.44191 22.7912 2.58119 22.9277 2.65483 23.1005C3.27511 24.5551 4.11296 25.9069 5.13967 27.1097C5.22681 27.2126 5.28273 27.3383 5.30087 27.472C5.31901 27.6057 5.29861 27.7417 5.24207 27.8642C5.18552 27.9866 5.09518 28.0904 4.98168 28.1633C4.86817 28.2362 4.73622 28.2751 4.60133 28.2756ZM23.7476 32.5397C23.5857 32.54 23.4287 32.4848 23.3026 32.3833C23.1765 32.2819 23.0889 32.1403 23.0545 31.9822C23.02 31.824 23.0408 31.6589 23.1133 31.5141C23.1858 31.3694 23.3056 31.2539 23.4529 31.1868C24.2746 30.81 25.0665 30.3595 25.8046 29.8467C25.959 29.7396 26.1496 29.6982 26.3346 29.7317C26.5195 29.7652 26.6835 29.8707 26.7906 30.0252C26.8977 30.1796 26.939 30.3702 26.9055 30.5551C26.8721 30.74 26.7665 30.9041 26.6121 31.0112C25.8046 31.5707 24.939 32.0623 24.0423 32.4746C23.9501 32.518 23.8494 32.5402 23.7476 32.5397ZM14.875 21.9587H10.625C10.4371 21.9587 10.257 21.884 10.1241 21.7512C9.99129 21.6184 9.91667 21.4382 9.91667 21.2503V19.8337C9.91667 17.8815 11.5048 16.292 13.4583 16.292C13.6462 16.292 13.8264 16.2174 13.9592 16.0845C14.092 15.9517 14.1667 15.7715 14.1667 15.5837V14.167C14.1667 13.9791 14.092 13.799 13.9592 13.6661C13.8264 13.5333 13.6462 13.4587 13.4583 13.4587H10.625C10.4371 13.4587 10.257 13.384 10.1241 13.2512C9.99129 13.1184 9.91667 12.9382 9.91667 12.7503C9.91667 12.5625 9.99129 12.3823 10.1241 12.2495C10.257 12.1166 10.4371 12.042 10.625 12.042H13.4583C14.6299 12.042 15.5833 12.9954 15.5833 14.167V15.5837C15.5833 16.7552 14.6299 17.7087 13.4583 17.7087C12.2868 17.7087 11.3333 18.6621 11.3333 19.8337V20.542H14.875C15.0629 20.542 15.243 20.6166 15.3759 20.7495C15.5087 20.8823 15.5833 21.0625 15.5833 21.2503C15.5833 21.4382 15.5087 21.6184 15.3759 21.7512C15.243 21.884 15.0629 21.9587 14.875 21.9587ZM23.375 17.7087H20.5417C19.3701 17.7087 18.4167 16.7552 18.4167 15.5837V12.7503C18.4167 12.5625 18.4913 12.3823 18.6241 12.2495C18.757 12.1166 18.9371 12.042 19.125 12.042C19.3129 12.042 19.493 12.1166 19.6259 12.2495C19.7587 12.3823 19.8333 12.5625 19.8333 12.7503V15.5837C19.8333 15.7715 19.908 15.9517 20.0408 16.0845C20.1736 16.2174 20.3538 16.292 20.5417 16.292H23.375C23.5629 16.292 23.743 16.3666 23.8759 16.4995C24.0087 16.6323 24.0833 16.8125 24.0833 17.0003C24.0833 17.1882 24.0087 17.3684 23.8759 17.5012C23.743 17.634 23.5629 17.7087 23.375 17.7087Z" fill="black"/>
<path d="M23.3748 21.9587C23.187 21.9587 23.0068 21.884 22.874 21.7512C22.7411 21.6184 22.6665 21.4382 22.6665 21.2503V12.7503C22.6665 12.5625 22.7411 12.3823 22.874 12.2495C23.0068 12.1166 23.187 12.042 23.3748 12.042C23.5627 12.042 23.7429 12.1166 23.8757 12.2495C24.0085 12.3823 24.0832 12.5625 24.0832 12.7503V21.2503C24.0832 21.4382 24.0085 21.6184 23.8757 21.7512C23.7429 21.884 23.5627 21.9587 23.3748 21.9587Z" fill="black"/>
</g>
<defs>
<clipPath id="clip0_8_1301">
<rect width="34" height="34" fill="white"/>
</clipPath>
</defs>
</svg>
