<svg width="120" height="29" viewBox="0 0 120 29" fill="none" xmlns="http://www.w3.org/2000/svg">
<path d="M105.601 9.07732L104.936 1.54799C104.936 0.803792 105.807 0.192383 106.902 0.192383C107.998 0.192383 108.87 0.803792 108.87 1.54799L108.204 9.07732C108.129 9.53064 107.575 9.88082 106.901 9.88082C106.229 9.88082 105.675 9.53064 105.601 9.07732Z" fill="#FFC220"/>
<path d="M102.831 12.2309C103.168 11.6469 103.142 10.9936 102.786 10.7027L96.5968 6.36207C95.9541 5.98981 94.9889 6.43814 94.4409 7.38732C93.8917 8.3357 93.9892 9.39543 94.6319 9.76737L101.484 12.958C101.913 13.1174 102.495 12.8139 102.831 12.2309Z" fill="#FFC220"/>
<path d="M110.973 12.2309C111.31 12.8144 111.891 13.1174 112.32 12.958L119.173 9.76737C119.818 9.39543 119.911 8.3357 119.365 7.38732C118.815 6.43814 117.849 5.98981 117.207 6.36207L111.018 10.7027C110.664 10.9936 110.637 11.6478 110.973 12.2309Z" fill="#FFC220"/>
<path d="M105.601 20.0867L104.936 27.6157C104.936 28.3612 105.807 28.9712 106.902 28.9712C107.998 28.9712 108.87 28.3612 108.87 27.6157L108.204 20.0867C108.129 19.6336 107.575 19.2853 106.901 19.2853C106.229 19.2853 105.675 19.6336 105.601 20.0867Z" fill="#FFC220"/>
<path d="M111.018 18.4655L117.207 22.8026C117.849 23.1741 118.815 22.7241 119.365 21.7778C119.911 20.8287 119.818 19.7683 119.173 19.3951L112.32 16.208C111.891 16.0465 111.311 16.3493 110.973 16.9335C110.637 17.5162 110.664 18.1713 111.018 18.4655Z" fill="#FFC220"/>
<path d="M101.484 16.208L94.6319 19.3949C93.9892 19.7683 93.8919 20.8287 94.4411 21.7778C94.9889 22.7241 95.9543 23.1741 96.597 22.8026L102.786 18.4655C103.142 18.1713 103.168 17.5172 102.831 16.9335C102.494 16.3493 101.913 16.0465 101.484 16.208Z" fill="#FFC220"/>
<path d="M67.8628 18.4509C67.8628 18.6824 67.8424 18.9213 67.7787 19.13C67.5162 19.9992 66.6157 20.7339 65.4899 20.7339C64.5512 20.7339 63.8055 20.2011 63.8055 19.0744C63.8055 17.351 65.7031 16.8745 67.8628 16.8858V18.4509ZM71.2512 15.4478C71.2512 12.6044 70.0368 10.1034 65.9329 10.1034C63.8257 10.1034 62.1531 10.6954 61.2403 11.2224L61.9088 13.5074C62.7426 12.9814 64.0722 12.5455 65.33 12.5455C67.4118 12.5403 67.7533 13.724 67.7533 14.4828V14.6624C63.2144 14.6556 60.3466 16.2263 60.3466 19.4282C60.3466 21.3833 61.8072 23.2153 64.3467 23.2153C65.9079 23.2153 67.2148 22.5921 67.9966 21.5938H68.074C68.074 21.5938 68.5924 23.7621 71.4498 22.9328C71.2996 22.0304 71.2512 21.0681 71.2512 19.9094V15.4478Z" fill="#0071DC"/>
<path d="M4.29768 6.23186C4.64721 8.00034 5.64394 13.1313 5.64394 13.1313C6.06132 15.2412 6.44712 17.4533 6.73687 19.2025H6.78763C7.07045 17.345 7.51507 15.5849 7.99031 13.4052L9.66773 6.23186H13.3789L14.9474 13.5907C15.3593 15.6381 15.6866 17.215 15.9443 19.1192H15.9947C16.2782 17.1965 16.6453 15.554 17.0503 13.4524L18.5567 6.23186H22.1186L17.7068 22.933C14.896 23.5489 13.8192 22.4176 13.4321 20.6216C13.0463 18.8254 12.2926 15.4057 12.2926 15.4057C11.9063 13.5335 11.6045 12.2125 11.3924 10.2903H11.3394C11.0377 12.1937 10.7228 13.5275 10.2535 15.3988L8.40189 22.933C5.53242 23.5043 4.53699 22.6571 3.98472 20.3552C3.51158 18.3827 0.546387 6.23186 0.546387 6.23186H4.29768Z" fill="#0071DC"/>
<path d="M28.8537 18.4509C28.8537 18.6824 28.8335 18.9213 28.7695 19.13C28.507 19.9992 27.6065 20.7339 26.4809 20.7339C25.5423 20.7339 24.7967 20.2011 24.7967 19.0744C24.7967 17.351 26.6939 16.8745 28.8537 16.8858V18.4509ZM32.2414 15.4478C32.2414 12.6044 31.0271 10.1034 26.9239 10.1034C24.8163 10.1034 23.1432 10.6954 22.2313 11.2224L22.8988 13.5074C23.7334 12.9814 25.0622 12.5455 26.3205 12.5455C28.4037 12.5403 28.7446 13.724 28.7446 14.4828V14.6624C24.2051 14.6556 21.3377 16.2263 21.3377 19.4282C21.3377 21.3833 22.7972 23.2153 25.3354 23.2153C26.8979 23.2153 28.2045 22.5921 28.9877 21.5938H29.0644C29.0644 21.5938 29.583 23.7621 32.4401 22.9328C32.2901 22.0304 32.2414 21.0681 32.2414 19.9094V15.4478Z" fill="#0071DC"/>
<path d="M34.504 6.2317H37.8951V22.9328H34.504V6.2317Z" fill="#0071DC"/>
<path d="M85.6119 6.23186V10.1812H88.5654V13.3767H85.6119V18.09C85.6119 19.6152 85.9993 20.3552 87.1545 20.3552C87.6988 20.3552 88.0969 20.287 88.4427 20.2019L88.4864 22.8521C88.0215 23.0252 87.0349 23.2155 86.0322 23.2155C84.8527 23.2155 83.8689 22.8037 83.2712 22.1678C82.5873 21.441 82.2674 20.2508 82.2674 18.5524V6.23186H85.6119Z" fill="#0071DC"/>
<path d="M76.582 10.3865V12.753H76.677C77.3004 10.9464 78.7857 10.1034 80.0912 10.1034C80.419 10.1034 80.599 10.128 80.8623 10.1812V13.466C80.5481 13.4205 80.2581 13.3767 79.8525 13.3767C78.3753 13.3767 77.3458 14.2367 77.087 15.5825C77.0322 15.8597 77.0113 16.1619 77.0113 16.5085V22.9328H73.5125V10.3865H76.582Z" fill="#0071DC"/>
<path d="M43.5067 10.3865V12.0913H43.557C44.1355 11.1787 45.0889 10.1034 47.2112 10.1034C48.8626 10.1034 50.1299 10.9953 50.6689 12.3474H50.7192C51.1835 11.6662 51.715 11.1489 52.3083 10.7849C53.0143 10.3514 53.7951 10.1034 54.7842 10.1034C57.0181 10.1034 58.9967 11.6466 58.9967 15.5435V22.9328H55.5886V16.0582C55.5886 14.0832 54.9193 12.9408 53.5245 12.9408C52.5017 12.9408 51.7589 13.6263 51.4787 14.4691C51.382 14.7603 51.3367 15.1568 51.3367 15.4862V22.9328H47.9311V15.7822C47.9311 14.1038 47.2873 12.9408 45.9117 12.9408C44.8112 12.9408 44.1221 13.8073 43.8395 14.5479C43.7191 14.8654 43.6798 15.2301 43.6798 15.575V22.9328H40.2703V10.3865H43.5067Z" fill="#0071DC"/>
</svg>
